<?xml version="1.0" encoding="UTF-8"?>
<svg viewBox="0 0 653.01031 628.91101" xmlns="http://www.w3.org/2000/svg" xmlns:xlink="http://www.w3.org/1999/xlink">
 <defs>
  <filter id="h">
   <feGaussianBlur stdDeviation="1.31306"/>
  </filter>
  <filter id="dj">
   <feGaussianBlur stdDeviation="3.89603"/>
  </filter>
  <filter id="dk">
   <feGaussianBlur stdDeviation=".68906"/>
  </filter>
  <filter id="dt">
   <feGaussianBlur stdDeviation=".49245"/>
  </filter>
  <filter id="dm">
   <feGaussianBlur stdDeviation="2.96562"/>
  </filter>
  <filter id="dl">
   <feGaussianBlur stdDeviation="1.40502"/>
  </filter>
  <linearGradient id="i">
   <stop stop-color="#cbd3e3" offset="0"/>
   <stop stop-color="#fff" offset=".83405"/>
   <stop stop-color="#ced8ff" offset="1"/>
  </linearGradient>
  <linearGradient id="f">
   <stop stop-color="#acb6c3" offset="0"/>
   <stop stop-color="#717171" offset="1"/>
  </linearGradient>
  <linearGradient id="j">
   <stop stop-color="#d4dadf" offset="0"/>
   <stop stop-color="#fff" offset=".28188"/>
   <stop stop-color="#7c8b9f" offset="1"/>
  </linearGradient>
  <linearGradient id="k">
   <stop stop-color="#4d0206" offset="0"/>
   <stop stop-color="#eb5c5c" offset=".5"/>
   <stop stop-color="#4d0206" offset="1"/>
  </linearGradient>
  <linearGradient id="l">
   <stop stop-color="#616161" offset="0"/>
   <stop stop-color="#d4d4d4" offset=".5"/>
   <stop stop-color="#616161" offset="1"/>
  </linearGradient>
  <linearGradient id="d">
   <stop offset="0"/>
   <stop stop-color="#c93030" offset=".66852"/>
   <stop stop-color="#470000" offset="1"/>
  </linearGradient>
  <linearGradient id="c">
   <stop offset="0"/>
   <stop stop-color="#dfdfdf" offset=".66866"/>
   <stop stop-color="#3c3c3c" offset="1"/>
  </linearGradient>
  <linearGradient id="e">
   <stop offset="0"/>
   <stop stop-color="#dfdfdf" offset=".67673"/>
   <stop stop-color="#3c3c3c" offset="1"/>
  </linearGradient>
  <linearGradient id="ds" x1="327.53" x2="80.786" y1="344.12" y2="96.675" gradientUnits="userSpaceOnUse">
   <stop stop-color="#356a32" offset="0"/>
   <stop stop-color="#4d844a" offset=".6288"/>
   <stop stop-color="#356a32" offset="1"/>
  </linearGradient>
  <linearGradient id="dr" x1="645.4" x2="468.65" y1="369.11" y2="77.98" gradientUnits="userSpaceOnUse">
   <stop stop-color="#356a32" offset="0"/>
   <stop stop-color="#468043" offset=".71056"/>
   <stop stop-color="#435d43" offset="1"/>
  </linearGradient>
  <linearGradient id="dq" x1="643.88" x2="465.24" y1="369.11" y2="77.98" gradientUnits="userSpaceOnUse">
   <stop stop-color="#2d4e2b" offset="0"/>
   <stop stop-color="#435d43" offset="1"/>
  </linearGradient>
  <linearGradient id="do" x1="327.53" x2="80.786" y1="344.12" y2="96.675" gradientUnits="userSpaceOnUse">
   <stop stop-color="#447043" offset="0"/>
   <stop stop-color="#435d43" offset="1"/>
  </linearGradient>
  <linearGradient id="b" x1="164.73" x2="167.32" gradientUnits="userSpaceOnUse" xlink:href="#k"/>
  <linearGradient id="a" x1="164.2" x2="167.86" gradientUnits="userSpaceOnUse" xlink:href="#l"/>
  <linearGradient id="di" x1="164.73" x2="167.32" gradientTransform="matrix(0 1.1206 -1.0679 0 1473.9 320.35)" gradientUnits="userSpaceOnUse" xlink:href="#k"/>
  <linearGradient id="g" x1="164.2" x2="167.86" gradientTransform="matrix(0 1.1206 -1.0679 0 1473.9 320.35)" gradientUnits="userSpaceOnUse" xlink:href="#l"/>
  <linearGradient id="dh" x1="132.61" x2="149.77" y1="196.21" y2="195.23" gradientUnits="userSpaceOnUse" xlink:href="#f"/>
  <linearGradient id="dg" x1="207.26" x2="207.64" y1="273.86" y2="257.36" gradientUnits="userSpaceOnUse" xlink:href="#f"/>
  <linearGradient id="df" x1="207.99" x2="207.2" y1="118.56" y2="133.64" gradientUnits="userSpaceOnUse" xlink:href="#f"/>
  <linearGradient id="de" x1="288.26" x2="267.59" y1="192.86" y2="193.42" gradientUnits="userSpaceOnUse" xlink:href="#f"/>
  <linearGradient id="dd" x1="213.05" x2="303.21" y1="483.8" y2="608.16" gradientTransform="matrix(.92863 0 0 .97446 -27.675 -312.81)" gradientUnits="userSpaceOnUse" xlink:href="#j"/>
  <linearGradient id="dc" x1="557.3" x2="555.17" y1="143.94" y2="157.29" gradientUnits="userSpaceOnUse" xlink:href="#f"/>
  <linearGradient id="db" x1="481.03" x2="495.18" y1="194.62" y2="198.73" gradientUnits="userSpaceOnUse" xlink:href="#f"/>
  <linearGradient id="da" x1="604.84" x2="586.22" y1="223.08" y2="218.66" gradientUnits="userSpaceOnUse" xlink:href="#f"/>
  <linearGradient id="cz" x1="524.54" x2="528.78" y1="270.06" y2="249.76" gradientUnits="userSpaceOnUse" xlink:href="#f"/>
  <linearGradient id="cy" x1="219.61" x2="293.84" y1="265.86" y2="386.3" gradientTransform="matrix(1.0481 -.02341 .00421 1.0893 274.2 -141.3)" gradientUnits="userSpaceOnUse" xlink:href="#j"/>
  <linearGradient id="cx" x1="605.89" x2="606.56" y1="315.29" y2="312.24" gradientUnits="userSpaceOnUse" xlink:href="#d"/>
  <linearGradient id="cw" x1="608.96" x2="609.93" y1="316.81" y2="312.46" gradientUnits="userSpaceOnUse" xlink:href="#c"/>
  <linearGradient id="cv" x1="601.69" x2="602.66" y1="315.02" y2="310.67" gradientUnits="userSpaceOnUse" xlink:href="#e"/>
  <linearGradient id="cu" x1="590.65" x2="591.32" y1="311.84" y2="308.79" gradientUnits="userSpaceOnUse" xlink:href="#d"/>
  <linearGradient id="ct" x1="593.72" x2="594.69" y1="313.37" y2="309.01" gradientUnits="userSpaceOnUse" xlink:href="#c"/>
  <linearGradient id="cs" x1="586.45" x2="587.42" y1="311.58" y2="307.22" gradientUnits="userSpaceOnUse" xlink:href="#e"/>
  <linearGradient id="cr" x1="567.1" x2="567.73" y1="299.22" y2="296.33" gradientUnits="userSpaceOnUse" xlink:href="#d"/>
  <linearGradient id="cq" x1="570" x2="570.92" y1="300.66" y2="296.53" gradientUnits="userSpaceOnUse" xlink:href="#c"/>
  <linearGradient id="cp" x1="563.13" x2="564.05" y1="298.96" y2="294.83" gradientUnits="userSpaceOnUse" xlink:href="#e"/>
  <linearGradient id="co" x1="551.01" x2="551.64" y1="295.51" y2="292.61" gradientUnits="userSpaceOnUse" xlink:href="#d"/>
  <linearGradient id="cn" x1="553.91" x2="554.83" y1="296.95" y2="292.82" gradientUnits="userSpaceOnUse" xlink:href="#c"/>
  <linearGradient id="cm" x1="547.04" x2="547.96" y1="295.25" y2="291.12" gradientUnits="userSpaceOnUse" xlink:href="#e"/>
  <linearGradient id="cl" x1="253.76" x2="254.42" y1="267.2" y2="264.15" gradientTransform="matrix(-.4033 .99713 .87535 .37886 481.93 -54.557)" gradientUnits="userSpaceOnUse" xlink:href="#d"/>
  <linearGradient id="ck" x1="256.82" x2="257.8" y1="268.72" y2="264.37" gradientTransform="matrix(-.4033 .99713 .87535 .37886 481.93 -54.557)" gradientUnits="userSpaceOnUse" xlink:href="#c"/>
  <linearGradient id="cj" x1="256.82" x2="257.8" y1="268.72" y2="264.37" gradientTransform="matrix(-.4033 .99713 .87535 .37886 483.3 -62.484)" gradientUnits="userSpaceOnUse" xlink:href="#e"/>
  <linearGradient id="ci" x1="253.76" x2="254.42" y1="267.2" y2="264.15" gradientTransform="matrix(-.4033 .99713 .87535 .37886 475.53 -70.982)" gradientUnits="userSpaceOnUse" xlink:href="#d"/>
  <linearGradient id="ch" x1="256.82" x2="257.8" y1="268.72" y2="264.37" gradientTransform="matrix(-.4033 .99713 .87535 .37886 475.53 -70.982)" gradientUnits="userSpaceOnUse" xlink:href="#c"/>
  <linearGradient id="cg" x1="256.82" x2="257.8" y1="268.72" y2="264.37" gradientTransform="matrix(-.4033 .99713 .87535 .37886 476.9 -78.909)" gradientUnits="userSpaceOnUse" xlink:href="#e"/>
  <linearGradient id="cf" x1="253.76" x2="254.42" y1="267.2" y2="264.15" gradientTransform="matrix(-.36266 .94734 .78714 .35995 494.53 -84.561)" gradientUnits="userSpaceOnUse" xlink:href="#d"/>
  <linearGradient id="ce" x1="256.82" x2="257.8" y1="268.72" y2="264.37" gradientTransform="matrix(-.36266 .94734 .78714 .35995 494.53 -84.561)" gradientUnits="userSpaceOnUse" xlink:href="#c"/>
  <linearGradient id="cd" x1="256.82" x2="257.8" y1="268.72" y2="264.37" gradientTransform="matrix(-.36266 .94734 .78714 .35995 495.76 -92.093)" gradientUnits="userSpaceOnUse" xlink:href="#e"/>
  <linearGradient id="cc" x1="253.76" x2="254.42" y1="267.2" y2="264.15" gradientTransform="matrix(-.36266 .94734 .78714 .35995 507.03 -102.94)" gradientUnits="userSpaceOnUse" xlink:href="#d"/>
  <linearGradient id="cb" x1="256.82" x2="257.8" y1="268.72" y2="264.37" gradientTransform="matrix(-.36266 .94734 .78714 .35995 507.03 -102.94)" gradientUnits="userSpaceOnUse" xlink:href="#c"/>
  <linearGradient id="ca" x1="256.82" x2="257.8" y1="268.72" y2="264.37" gradientTransform="matrix(-.36266 .94734 .78714 .35995 508.26 -110.47)" gradientUnits="userSpaceOnUse" xlink:href="#e"/>
  <linearGradient id="bz" x1="253.76" x2="254.42" y1="267.2" y2="264.15" gradientTransform="matrix(-.36266 .94734 .78714 .35995 503.28 -82.811)" gradientUnits="userSpaceOnUse" xlink:href="#d"/>
  <linearGradient id="by" x1="256.82" x2="257.8" y1="268.72" y2="264.37" gradientTransform="matrix(-.36266 .94734 .78714 .35995 503.28 -82.811)" gradientUnits="userSpaceOnUse" xlink:href="#c"/>
  <linearGradient id="bx" x1="256.82" x2="257.8" y1="268.72" y2="264.37" gradientTransform="matrix(-.36266 .94734 .78714 .35995 504.51 -90.343)" gradientUnits="userSpaceOnUse" xlink:href="#e"/>
  <linearGradient id="bw" x1="253.76" x2="254.42" y1="267.2" y2="264.15" gradientTransform="matrix(-.34194 .90103 .71145 .33289 515.83 -99.674)" gradientUnits="userSpaceOnUse" xlink:href="#d"/>
  <linearGradient id="bv" x1="256.82" x2="257.8" y1="268.72" y2="264.37" gradientTransform="matrix(-.34194 .90103 .71145 .33289 515.83 -99.674)" gradientUnits="userSpaceOnUse" xlink:href="#c"/>
  <linearGradient id="bu" x1="256.82" x2="257.8" y1="268.72" y2="264.37" gradientTransform="matrix(-.34194 .90103 .71145 .33289 517.04 -106.82)" gradientUnits="userSpaceOnUse" xlink:href="#e"/>
  <linearGradient id="bt" x1="253.76" x2="254.42" y1="267.2" y2="264.15" gradientTransform="matrix(-.3468 .90334 .71983 .31526 518.99 -117.79)" gradientUnits="userSpaceOnUse" xlink:href="#d"/>
  <linearGradient id="bs" x1="256.82" x2="257.8" y1="268.72" y2="264.37" gradientTransform="matrix(-.3468 .90334 .71983 .31526 518.99 -117.79)" gradientUnits="userSpaceOnUse" xlink:href="#c"/>
  <linearGradient id="br" x1="256.82" x2="257.8" y1="268.72" y2="264.37" gradientTransform="matrix(-.3468 .90334 .71983 .31526 520.22 -124.92)" gradientUnits="userSpaceOnUse" xlink:href="#e"/>
  <linearGradient id="bq" x1="253.76" x2="254.42" y1="267.2" y2="264.15" gradientTransform="matrix(-.3468 .90334 .71983 .31526 531.99 -141.42)" gradientUnits="userSpaceOnUse" xlink:href="#d"/>
  <linearGradient id="bp" x1="256.82" x2="257.8" y1="268.72" y2="264.37" gradientTransform="matrix(-.3468 .90334 .71983 .31526 531.99 -141.42)" gradientUnits="userSpaceOnUse" xlink:href="#c"/>
  <linearGradient id="bo" x1="256.82" x2="257.8" y1="268.72" y2="264.37" gradientTransform="matrix(-.3468 .90334 .71983 .31526 533.22 -148.55)" gradientUnits="userSpaceOnUse" xlink:href="#e"/>
  <linearGradient id="bn" x1="253.76" x2="254.42" y1="267.2" y2="264.15" gradientTransform="matrix(-.3468 .86752 .71983 .30276 526.11 -143.78)" gradientUnits="userSpaceOnUse" xlink:href="#d"/>
  <linearGradient id="bm" x1="256.82" x2="257.8" y1="268.72" y2="264.37" gradientTransform="matrix(-.3468 .86752 .71983 .30276 526.11 -143.78)" gradientUnits="userSpaceOnUse" xlink:href="#c"/>
  <linearGradient id="bl" x1="256.82" x2="257.8" y1="268.72" y2="264.37" gradientTransform="matrix(-.3468 .86752 .71983 .30276 527.35 -150.63)" gradientUnits="userSpaceOnUse" xlink:href="#e"/>
  <linearGradient id="bk" x1="253.76" x2="254.42" y1="267.2" y2="264.15" gradientTransform="matrix(-.41507 .971 .73678 .37397 440.97 -53.894)" gradientUnits="userSpaceOnUse" xlink:href="#d"/>
  <linearGradient id="bj" x1="256.82" x2="257.8" y1="268.72" y2="264.37" gradientTransform="matrix(-.41507 .971 .73678 .37397 440.84 -53.959)" gradientUnits="userSpaceOnUse" xlink:href="#c"/>
  <linearGradient id="bi" x1="256.82" x2="257.8" y1="268.72" y2="264.37" gradientTransform="matrix(-.41507 .971 .73678 .37397 442.67 -61.623)" gradientUnits="userSpaceOnUse" xlink:href="#e"/>
  <linearGradient id="bh" x1="253.76" x2="254.42" y1="267.2" y2="264.15" gradientTransform="matrix(-.41507 .971 .73678 .37397 429.03 -56.707)" gradientUnits="userSpaceOnUse" xlink:href="#d"/>
  <linearGradient id="bg" x1="256.82" x2="257.8" y1="268.72" y2="264.37" gradientTransform="matrix(-.41507 .971 .73678 .37397 428.91 -56.772)" gradientUnits="userSpaceOnUse" xlink:href="#c"/>
  <linearGradient id="bf" x1="256.82" x2="257.8" y1="268.72" y2="264.37" gradientTransform="matrix(-.41507 .971 .73678 .37397 430.73 -64.435)" gradientUnits="userSpaceOnUse" xlink:href="#e"/>
  <linearGradient id="be" x1="253.76" x2="254.42" y1="267.2" y2="264.15" gradientTransform="matrix(-.42352 .94568 .71463 .38013 419.63 -55.774)" gradientUnits="userSpaceOnUse" xlink:href="#d"/>
  <linearGradient id="bd" x1="256.82" x2="257.8" y1="268.72" y2="264.37" gradientTransform="matrix(-.42352 .94568 .71463 .38013 419.51 -55.84)" gradientUnits="userSpaceOnUse" xlink:href="#c"/>
  <linearGradient id="bc" x1="256.82" x2="257.8" y1="268.72" y2="264.37" gradientTransform="matrix(-.42352 .94568 .71463 .38013 421.43 -63.33)" gradientUnits="userSpaceOnUse" xlink:href="#e"/>
  <linearGradient id="bb" x1="253.76" x2="254.42" y1="267.2" y2="264.15" gradientTransform="matrix(-.37145 .83586 .52318 .27944 434.29 -128.94)" gradientUnits="userSpaceOnUse" xlink:href="#d"/>
  <linearGradient id="ba" x1="256.82" x2="257.8" y1="268.72" y2="264.37" gradientTransform="matrix(-.37145 .83586 .52318 .27944 434.2 -128.99)" gradientUnits="userSpaceOnUse" xlink:href="#c"/>
  <linearGradient id="az" x1="256.82" x2="257.8" y1="268.72" y2="264.37" gradientTransform="matrix(-.37145 .83586 .52318 .27944 435.99 -135.21)" gradientUnits="userSpaceOnUse" xlink:href="#e"/>
  <linearGradient id="ay" x1="253.76" x2="254.42" y1="267.2" y2="264.15" gradientTransform="matrix(-.37145 .83586 .52318 .27944 427.92 -130.07)" gradientUnits="userSpaceOnUse" xlink:href="#d"/>
  <linearGradient id="ax" x1="256.82" x2="257.8" y1="268.72" y2="264.37" gradientTransform="matrix(-.37145 .83586 .52318 .27944 427.83 -130.12)" gradientUnits="userSpaceOnUse" xlink:href="#c"/>
  <linearGradient id="aw" x1="256.82" x2="257.8" y1="268.72" y2="264.37" gradientTransform="matrix(-.37145 .83586 .52318 .27944 429.62 -136.33)" gradientUnits="userSpaceOnUse" xlink:href="#e"/>
  <linearGradient id="av" x1="253.76" x2="254.42" y1="267.2" y2="264.15" gradientTransform="matrix(-.37145 .83586 .52318 .27944 431.54 -142.63)" gradientUnits="userSpaceOnUse" xlink:href="#d"/>
  <linearGradient id="au" x1="256.82" x2="257.8" y1="268.72" y2="264.37" gradientTransform="matrix(-.37145 .83586 .52318 .27944 431.45 -142.68)" gradientUnits="userSpaceOnUse" xlink:href="#c"/>
  <linearGradient id="at" x1="256.82" x2="257.8" y1="268.72" y2="264.37" gradientTransform="matrix(-.37145 .83586 .52318 .27944 433.24 -148.89)" gradientUnits="userSpaceOnUse" xlink:href="#e"/>
  <linearGradient id="as" x1="253.76" x2="254.42" y1="267.2" y2="264.15" gradientTransform="matrix(-.37145 .80376 .52318 .26871 435.6 -145.5)" gradientUnits="userSpaceOnUse" xlink:href="#d"/>
  <linearGradient id="ar" x1="256.82" x2="257.8" y1="268.72" y2="264.37" gradientTransform="matrix(-.37145 .80376 .52318 .26871 435.52 -145.54)" gradientUnits="userSpaceOnUse" xlink:href="#c"/>
  <linearGradient id="aq" x1="256.82" x2="257.8" y1="268.72" y2="264.37" gradientTransform="matrix(-.37145 .80376 .52318 .26871 437.3 -151.52)" gradientUnits="userSpaceOnUse" xlink:href="#e"/>
  <linearGradient id="ap" x1="253.76" x2="254.42" y1="267.2" y2="264.15" gradientTransform="matrix(-.37145 .80376 .52318 .26871 443.42 -149.12)" gradientUnits="userSpaceOnUse" xlink:href="#d"/>
  <linearGradient id="ao" x1="256.82" x2="257.8" y1="268.72" y2="264.37" gradientTransform="matrix(-.37145 .80376 .52318 .26871 443.33 -149.17)" gradientUnits="userSpaceOnUse" xlink:href="#c"/>
  <linearGradient id="an" x1="256.82" x2="257.8" y1="268.72" y2="264.37" gradientTransform="matrix(-.37145 .80376 .52318 .26871 445.12 -155.14)" gradientUnits="userSpaceOnUse" xlink:href="#e"/>
  <linearGradient id="am" x1="253.76" x2="254.42" y1="267.2" y2="264.15" gradientTransform="matrix(-.37145 .78236 .52318 .26155 439.6 -152.03)" gradientUnits="userSpaceOnUse" xlink:href="#d"/>
  <linearGradient id="al" x1="256.82" x2="257.8" y1="268.72" y2="264.37" gradientTransform="matrix(-.37145 .78236 .52318 .26155 439.52 -152.08)" gradientUnits="userSpaceOnUse" xlink:href="#c"/>
  <linearGradient id="ak" x1="256.82" x2="257.8" y1="268.72" y2="264.37" gradientTransform="matrix(-.37145 .78236 .52318 .26155 441.3 -157.9)" gradientUnits="userSpaceOnUse" xlink:href="#e"/>
  <linearGradient id="aj" x1="253.76" x2="254.42" y1="267.2" y2="264.15" gradientTransform="matrix(.89641 -.0642 -.01643 .73563 390.49 -42.804)" gradientUnits="userSpaceOnUse" xlink:href="#d"/>
  <linearGradient id="ai" x1="256.82" x2="257.8" y1="268.72" y2="264.37" gradientTransform="matrix(.89325 -.0642 .01976 .73563 381.66 -42.925)" gradientUnits="userSpaceOnUse" xlink:href="#c"/>
  <linearGradient id="ah" x1="256.82" x2="257.8" y1="268.72" y2="264.37" gradientTransform="matrix(.89483 -.0642 .00166 .73563 379.58 -43.654)" gradientUnits="userSpaceOnUse" xlink:href="#e"/>
  <linearGradient id="ag" x1="253.76" x2="254.42" y1="267.2" y2="264.15" gradientTransform="matrix(.86511 -.0642 -.01586 .73563 381.49 -44.486)" gradientUnits="userSpaceOnUse" xlink:href="#d"/>
  <linearGradient id="af" x1="256.82" x2="257.8" y1="268.72" y2="264.37" gradientTransform="matrix(.86206 -.0642 .01907 .73563 372.96 -44.606)" gradientUnits="userSpaceOnUse" xlink:href="#c"/>
  <linearGradient id="ae" x1="256.82" x2="257.8" y1="268.72" y2="264.37" gradientTransform="matrix(.86359 -.0642 .00161 .73563 370.97 -45.336)" gradientUnits="userSpaceOnUse" xlink:href="#e"/>
  <linearGradient id="ad" x1="253.76" x2="254.42" y1="267.2" y2="264.15" gradientTransform="matrix(.81816 -.05502 -.015 .63052 381.6 -27.658)" gradientUnits="userSpaceOnUse" xlink:href="#d"/>
  <linearGradient id="ac" x1="256.82" x2="257.8" y1="268.72" y2="264.37" gradientTransform="matrix(.81528 -.05502 .01804 .63052 373.54 -27.761)" gradientUnits="userSpaceOnUse" xlink:href="#c"/>
  <linearGradient id="ab" x1="256.82" x2="257.8" y1="268.72" y2="264.37" gradientTransform="matrix(.81672 -.05502 .00152 .63052 371.65 -28.386)" gradientUnits="userSpaceOnUse" xlink:href="#e"/>
  <linearGradient id="aa" x1="253.76" x2="254.42" y1="267.2" y2="264.15" gradientTransform="matrix(.81816 -.05502 -.015 .63052 369.14 -29.125)" gradientUnits="userSpaceOnUse" xlink:href="#d"/>
  <linearGradient id="z" x1="256.82" x2="257.8" y1="268.72" y2="264.37" gradientTransform="matrix(.81528 -.05502 .01804 .63052 361.08 -29.228)" gradientUnits="userSpaceOnUse" xlink:href="#c"/>
  <linearGradient id="y" x1="256.82" x2="257.8" y1="268.72" y2="264.37" gradientTransform="matrix(.81672 -.05502 .00152 .63052 359.18 -29.853)" gradientUnits="userSpaceOnUse" xlink:href="#e"/>
  <linearGradient id="x" x1="253.76" x2="254.42" y1="267.2" y2="264.15" gradientTransform="matrix(.81816 -.05743 -.015 .65814 348.37 -31.273)" gradientUnits="userSpaceOnUse" xlink:href="#d"/>
  <linearGradient id="w" x1="256.82" x2="257.8" y1="268.72" y2="264.37" gradientTransform="matrix(.81528 -.05743 .01804 .65814 340.3 -31.38)" gradientUnits="userSpaceOnUse" xlink:href="#c"/>
  <linearGradient id="v" x1="256.82" x2="257.8" y1="268.72" y2="264.37" gradientTransform="matrix(.81672 -.05743 .00152 .65814 338.41 -32.033)" gradientUnits="userSpaceOnUse" xlink:href="#e"/>
  <linearGradient id="u" x1="253.76" x2="254.42" y1="267.2" y2="264.15" gradientTransform="matrix(.77904 -.05558 -.01428 .63687 342.69 -28.479)" gradientUnits="userSpaceOnUse" xlink:href="#d"/>
  <linearGradient id="t" x1="256.82" x2="257.8" y1="268.72" y2="264.37" gradientTransform="matrix(.7763 -.05558 .01717 .63687 335.01 -28.583)" gradientUnits="userSpaceOnUse" xlink:href="#c"/>
  <linearGradient id="s" x1="256.82" x2="257.8" y1="268.72" y2="264.37" gradientTransform="matrix(.77767 -.05558 .00145 .63687 333.21 -29.215)" gradientUnits="userSpaceOnUse" xlink:href="#e"/>
  <linearGradient id="r" x1="253.76" x2="254.42" y1="267.2" y2="264.15" gradientTransform="matrix(.7783 -.06082 .00573 .63465 312.46 -29.87)" gradientUnits="userSpaceOnUse" xlink:href="#d"/>
  <linearGradient id="q" x1="256.82" x2="257.8" y1="268.72" y2="264.37" gradientTransform="matrix(.77555 -.0608 .03722 .63443 304.76 -29.92)" gradientUnits="userSpaceOnUse" xlink:href="#c"/>
  <linearGradient id="p" x1="256.82" x2="257.8" y1="268.72" y2="264.37" gradientTransform="matrix(.77692 -.06081 .02148 .63454 302.94 -30.537)" gradientUnits="userSpaceOnUse" xlink:href="#e"/>
  <linearGradient id="o" x1="253.76" x2="254.42" y1="267.2" y2="264.15" gradientTransform="matrix(.77995 -.02967 -.01716 .61285 305.68 -40.146)" gradientUnits="userSpaceOnUse" xlink:href="#d"/>
  <linearGradient id="n" x1="256.82" x2="257.8" y1="268.72" y2="264.37" gradientTransform="matrix(.7772 -.02975 .01433 .61381 298 -40.482)" gradientUnits="userSpaceOnUse" xlink:href="#c"/>
  <linearGradient id="m" x1="256.82" x2="257.8" y1="268.72" y2="264.37" gradientTransform="matrix(.77857 -.02971 -.00141 .61333 296.2 -41.145)" gradientUnits="userSpaceOnUse" xlink:href="#e"/>
  <linearGradient id="dp" x1="636.02" x2="469.33" y1="363.52" y2="81.247" gradientUnits="userSpaceOnUse" xlink:href="#i"/>
  <linearGradient id="dn" x1="649.64" x2="372.95" y1="334.89" y2="57.574" gradientUnits="userSpaceOnUse" xlink:href="#i"/>
 </defs>
 <g transform="translate(-52.397 -83.737)">
  <path transform="matrix(.92863 0 0 .97446 -27.675 -312.81)" d="m128.88 428.69 256.13 1.3682 1.9853 2.162 2.3634 246.11-2.9359 2.5007-257.14-0.35714-5.6018-4.5515 2.5864-244.73 2.6124-2.4951z" filter="url(#dj)" opacity=".6"/>
  <path d="m84.754 96.675-2.4185 2.4457-1.5489 240.22 5.2174 4.4294 238.78 0.35326 2.7446-2.4457-0.89679-241.98-1.8478-2.1196-240.03-0.89674z" fill="url(#do)"/>
  <g transform="matrix(.86957 0 0 .86957 -580.36 -300.63)">
   <path d="m839.89 504.29h-4.6118v5.0344h4.6118v-5.0344zm7.593 0h-4.8026v5.0344h4.8026v-5.0344zm25.208 0h-4.6118v5.0344h4.6118v-5.0344zm7.593 0h-4.8026v5.0344h4.8026v-5.0344zm12.392 0.40021h-4.6118v5.0344h4.6118v-5.0344zm7.593 0h-4.8026v5.0344h4.8026v-5.0344zm15.978-9.2052h-4.6118v5.0344h4.6118v-5.0344zm7.593 0h-4.8026v5.0344h4.8026v-5.0344zm8.0062 0h-4.6118v5.0344h4.6118v-5.0344zm7.593 0h-4.8026v5.0344h4.8026v-5.0344zm8.0063 8.805h-4.6118v5.0344h4.6118v-5.0344zm7.593 0h-4.8026v5.0344h4.8026v-5.0344zm42.988 41.644v4.8395h4.7976v-4.8395h-4.7976zm0-7.9677v5.0396h4.7976v-5.0396h-4.7976zm-9.535 61.678v4.8395h4.7976v-4.8395h-4.7976zm0-7.9677v5.0396h4.7976v-5.0396h-4.7976zm9.535 23.576v4.8395h4.7976v-4.8395h-4.7976zm0-7.9677v5.0396h4.7976v-5.0396h-4.7976zm-9.535 62.078v4.8395h4.7976v-4.8395h-4.7976zm0-7.9677v5.0396h4.7976v-5.0396h-4.7976zm9.535-24.771v4.8395h4.7976v-4.8395h-4.7976zm0-7.9677v5.0396h4.7976v-5.0396h-4.7976zm-9.535 7.9677v4.8395h4.7976v-4.8395h-4.7976zm0-7.9677v5.0396h4.7976v-5.0396h-4.7976zm0-53.962v4.8395h4.7976v-4.8395h-4.7976zm0-7.9677v5.0396h4.7976v-5.0396h-4.7976zm-187.3-25.601v4.8395h4.7976v-4.8395h-4.7976zm0-7.9677v5.0396h4.7976v-5.0396h-4.7976zm8.8092 24.382v4.8395h4.7976v-4.8395h-4.7976zm0-7.9677v5.0396h4.7976v-5.0396h-4.7976zm-8.8092 7.9677v4.8395h4.7976v-4.8395h-4.7976zm0-7.9677v5.0396h4.7976v-5.0396h-4.7976zm8.8092-32.997v4.8395h4.7976v-4.8395h-4.7976zm0-7.9677v5.0396h4.7976v-5.0396h-4.7976zm-8.8092 14.123v4.8395h4.7976v-4.8395h-4.7976zm0-7.9677v5.0396h4.7976v-5.0396h-4.7976zm0-10.923v4.8395h4.7976v-4.8395h-4.7976zm0-7.9677v5.0396h4.7976v-5.0396h-4.7976zm19.825-0.18798h-4.6118v5.0344h4.6118v-5.0344zm7.593 0h-4.8026v5.0344h4.8026v-5.0344zm138.67 8.2046h-4.6118v5.0344h4.6118v-5.0344zm7.593 0h-4.8026v5.0344h4.8026v-5.0344zm-40.012 184.1h-4.6118v5.0344h4.6118v-5.0344zm7.593 0h-4.8026v5.0344h4.8026v-5.0344zm10.333 0h-4.6118v5.0344h4.6118v-5.0344zm7.593 0h-4.8026v5.0344h4.8026v-5.0344zm19.105 6.8038h-4.6118v5.0344h4.6118v-5.0344zm7.593 0h-4.8026v5.0344h4.8026v-5.0344zm8.4258 0h-4.6118v5.0344h4.6118v-5.0344zm7.593 0h-4.8025v5.0344h4.8025v-5.0344zm-14.604-164.87v4.8395h4.7976v-4.8395h-4.7976zm0-7.9677v5.0396h4.7976v-5.0396h-4.7976zm-76.204 172.46v4.8395h4.7976v-4.8395h-4.7976zm0-7.9677v5.0396h4.7976v-5.0396h-4.7976zm-13.73 7.9677v4.8395h4.7976v-4.8395h-4.7976zm0-7.9677v5.0396h4.7976v-5.0396h-4.7976zm-20.214 7.9677v4.8395h4.7976v-4.8395h-4.7976zm0-7.9677v5.0396h4.7976v-5.0396h-4.7976zm119.68-2.8384v4.8395h4.7976v-4.8395h-4.7976zm0-7.9677v5.0396h4.7976v-5.0396h-4.7976zm-216.28-214.66h-14.788v15.786h14.788v-15.786z" fill="#c6c48e"/>
   <g transform="matrix(0 1.1206 -1.0679 0 1441.5 504.46)">
    <path d="m164.73 470.04v5.7143h2.5893v-5.7143h-2.5893z" fill="url(#b)"/>
    <path d="m164.2 467.81v3.125h3.6607v-3.125h-3.6607z" fill="url(#a)"/>
    <path d="m164.2 475.13v3.125h3.6607v-3.125h-3.6607z" fill="url(#a)"/>
   </g>
   <g transform="matrix(0 1.1206 -1.0679 0 1502.2 511.26)">
    <path d="m164.73 470.04v5.7143h2.5893v-5.7143h-2.5893z" fill="url(#b)"/>
    <path d="m164.2 467.81v3.125h3.6607v-3.125h-3.6607z" fill="url(#a)"/>
    <path d="m164.2 475.13v3.125h3.6607v-3.125h-3.6607z" fill="url(#a)"/>
   </g>
   <g transform="matrix(1.0679 0 0 1.1206 737.39 162.76)">
    <path d="m164.73 470.04v5.7143h2.5893v-5.7143h-2.5893z" fill="url(#b)"/>
    <path d="m164.2 467.81v3.125h3.6607v-3.125h-3.6607z" fill="url(#a)"/>
    <path d="m164.2 475.13v3.125h3.6607v-3.125h-3.6607z" fill="url(#a)"/>
   </g>
   <g transform="matrix(1.0679 0 0 1.1206 723.66 162.76)">
    <path d="m164.73 470.04v5.7143h2.5893v-5.7143h-2.5893z" fill="url(#b)"/>
    <path d="m164.2 467.81v3.125h3.6607v-3.125h-3.6607z" fill="url(#a)"/>
    <path d="m164.2 475.13v3.125h3.6607v-3.125h-3.6607z" fill="url(#a)"/>
   </g>
   <g transform="matrix(1.0679 0 0 1.1206 703.44 162.76)">
    <path d="m164.73 470.04v5.7143h2.5893v-5.7143h-2.5893z" fill="url(#b)"/>
    <path d="m164.2 467.81v3.125h3.6607v-3.125h-3.6607z" fill="url(#a)"/>
    <path d="m164.2 475.13v3.125h3.6607v-3.125h-3.6607z" fill="url(#a)"/>
   </g>
   <g transform="matrix(0 1.1206 -1.0679 0 1459.4 504.46)">
    <path d="m164.73 470.04v5.7143h2.5893v-5.7143h-2.5893z" fill="url(#b)"/>
    <path d="m164.2 467.81v3.125h3.6607v-3.125h-3.6607z" fill="url(#a)"/>
    <path d="m164.2 475.13v3.125h3.6607v-3.125h-3.6607z" fill="url(#a)"/>
   </g>
   <g transform="matrix(0 1.1206 -1.0679 0 1486.1 511.26)">
    <path d="m164.73 470.04v5.7143h2.5893v-5.7143h-2.5893z" fill="url(#b)"/>
    <path d="m164.2 467.81v3.125h3.6607v-3.125h-3.6607z" fill="url(#a)"/>
    <path d="m164.2 475.13v3.125h3.6607v-3.125h-3.6607z" fill="url(#a)"/>
   </g>
   <g transform="matrix(1.0679 0 0 1.1206 635.09 -15.082)">
    <path d="m164.73 470.04v5.7143h2.5893v-5.7143h-2.5893z" fill="url(#b)"/>
    <path d="m164.2 467.81v3.125h3.6607v-3.125h-3.6607z" fill="url(#a)"/>
    <path d="m164.2 475.13v3.125h3.6607v-3.125h-3.6607z" fill="url(#a)"/>
   </g>
   <g transform="matrix(1.0679 0 0 1.1206 626.28 -8.9262)">
    <path d="m164.73 470.04v5.7143h2.5893v-5.7143h-2.5893z" fill="url(#b)"/>
    <path d="m164.2 467.81v3.125h3.6607v-3.125h-3.6607z" fill="url(#a)"/>
    <path d="m164.2 475.13v3.125h3.6607v-3.125h-3.6607z" fill="url(#a)"/>
   </g>
   <g transform="matrix(1.0679 0 0 1.1206 626.28 9.4688)">
    <path d="m164.73 470.04v5.7143h2.5893v-5.7143h-2.5893z" fill="url(#b)"/>
    <path d="m164.2 467.81v3.125h3.6607v-3.125h-3.6607z" fill="url(#a)"/>
    <path d="m164.2 475.13v3.125h3.6607v-3.125h-3.6607z" fill="url(#a)"/>
   </g>
   <g transform="matrix(1.0679 0 0 1.1206 635.09 25.883)">
    <path d="m164.73 470.04v5.7143h2.5893v-5.7143h-2.5893z" fill="url(#b)"/>
    <path d="m164.2 467.81v3.125h3.6607v-3.125h-3.6607z" fill="url(#a)"/>
    <path d="m164.2 475.13v3.125h3.6607v-3.125h-3.6607z" fill="url(#a)"/>
   </g>
   <g transform="matrix(1.0679 0 0 1.1206 626.28 25.883)">
    <path d="m164.73 470.04v5.7143h2.5893v-5.7143h-2.5893z" fill="url(#b)"/>
    <path d="m164.2 467.81v3.125h3.6607v-3.125h-3.6607z" fill="url(#a)"/>
    <path d="m164.2 475.13v3.125h3.6607v-3.125h-3.6607z" fill="url(#a)"/>
   </g>
   <g transform="matrix(1.0679 0 0 1.1206 626.28 -27.817)">
    <path d="m164.73 470.04v5.7143h2.5893v-5.7143h-2.5893z" fill="url(#b)"/>
    <path d="m164.2 467.81v3.125h3.6607v-3.125h-3.6607z" fill="url(#a)"/>
    <path d="m164.2 475.13v3.125h3.6607v-3.125h-3.6607z" fill="url(#a)"/>
   </g>
   <g transform="matrix(1.0679 0 0 1.1206 823.12 104.97)">
    <path d="m164.73 470.04v5.7143h2.5893v-5.7143h-2.5893z" fill="url(#b)"/>
    <path d="m164.2 467.81v3.125h3.6607v-3.125h-3.6607z" fill="url(#a)"/>
    <path d="m164.2 475.13v3.125h3.6607v-3.125h-3.6607z" fill="url(#a)"/>
   </g>
   <g transform="matrix(1.0679 0 0 1.1206 813.59 104.97)">
    <path d="m164.73 470.04v5.7143h2.5893v-5.7143h-2.5893z" fill="url(#b)"/>
    <path d="m164.2 467.81v3.125h3.6607v-3.125h-3.6607z" fill="url(#a)"/>
    <path d="m164.2 475.13v3.125h3.6607v-3.125h-3.6607z" fill="url(#a)"/>
   </g>
   <g transform="matrix(1.0679 0 0 1.1206 823.12 151.95)">
    <path d="m164.73 470.04v5.7143h2.5893v-5.7143h-2.5893z" fill="url(#b)"/>
    <path d="m164.2 467.81v3.125h3.6607v-3.125h-3.6607z" fill="url(#a)"/>
    <path d="m164.2 475.13v3.125h3.6607v-3.125h-3.6607z" fill="url(#a)"/>
   </g>
   <g transform="matrix(1.0679 0 0 1.1206 813.59 137.71)">
    <path d="m164.73 470.04v5.7143h2.5893v-5.7143h-2.5893z" fill="url(#b)"/>
    <path d="m164.2 467.81v3.125h3.6607v-3.125h-3.6607z" fill="url(#a)"/>
    <path d="m164.2 475.13v3.125h3.6607v-3.125h-3.6607z" fill="url(#a)"/>
   </g>
   <g transform="matrix(1.0679 0 0 1.1206 823.12 83.595)">
    <path d="m164.73 470.04v5.7143h2.5893v-5.7143h-2.5893z" fill="url(#b)"/>
    <path d="m164.2 467.81v3.125h3.6607v-3.125h-3.6607z" fill="url(#a)"/>
    <path d="m164.2 475.13v3.125h3.6607v-3.125h-3.6607z" fill="url(#a)"/>
   </g>
   <g transform="matrix(1.0679 0 0 1.1206 813.59 -1.7326)">
    <path d="m164.73 470.04v5.7143h2.5893v-5.7143h-2.5893z" fill="url(#b)"/>
    <path d="m164.2 467.81v3.125h3.6607v-3.125h-3.6607z" fill="url(#a)"/>
    <path d="m164.2 475.13v3.125h3.6607v-3.125h-3.6607z" fill="url(#a)"/>
   </g>
   <g transform="matrix(1.0679 0 0 1.1206 813.59 43.038)">
    <path d="m164.73 470.04v5.7143h2.5893v-5.7143h-2.5893z" fill="url(#b)"/>
    <path d="m164.2 467.81v3.125h3.6607v-3.125h-3.6607z" fill="url(#a)"/>
    <path d="m164.2 475.13v3.125h3.6607v-3.125h-3.6607z" fill="url(#a)"/>
   </g>
   <g transform="matrix(1.0679 0 0 1.1206 813.59 67.986)">
    <path d="m164.73 470.04v5.7143h2.5893v-5.7143h-2.5893z" fill="url(#b)"/>
    <path d="m164.2 467.81v3.125h3.6607v-3.125h-3.6607z" fill="url(#a)"/>
    <path d="m164.2 475.13v3.125h3.6607v-3.125h-3.6607z" fill="url(#a)"/>
   </g>
   <g transform="matrix(1.0679 0 0 1.1206 823.12 14.276)">
    <path d="m164.73 470.04v5.7143h2.5893v-5.7143h-2.5893z" fill="url(#b)"/>
    <path d="m164.2 467.81v3.125h3.6607v-3.125h-3.6607z" fill="url(#a)"/>
    <path d="m164.2 475.13v3.125h3.6607v-3.125h-3.6607z" fill="url(#a)"/>
   </g>
   <g transform="matrix(0 1.1206 -1.0679 0 1327.7 312.15)">
    <path d="m164.73 470.04v5.7143h2.5893v-5.7143h-2.5893z" fill="url(#b)"/>
    <path d="m164.2 467.81v3.125h3.6607v-3.125h-3.6607z" fill="url(#a)"/>
    <path d="m164.2 475.13v3.125h3.6607v-3.125h-3.6607z" fill="url(#a)"/>
   </g>
   <path d="m971.97 504.96h-6.1024v2.9016h6.1024v-2.9016z" fill="url(#di)"/>
   <path d="m974.35 504.36h-3.3372v4.1023h3.3372v-4.1023z" fill="url(#g)"/>
   <path d="m966.53 504.36h-3.3372v4.1023h3.3372v-4.1023z" fill="url(#g)"/>
   <g transform="matrix(0 1.1206 -1.0679 0 1454.1 320.75)">
    <path d="m164.73 470.04v5.7143h2.5893v-5.7143h-2.5893z" fill="url(#b)"/>
    <path d="m164.2 467.81v3.125h3.6607v-3.125h-3.6607z" fill="url(#a)"/>
    <path d="m164.2 475.13v3.125h3.6607v-3.125h-3.6607z" fill="url(#a)"/>
   </g>
   <g transform="matrix(0 1.1206 -1.0679 0 1438.5 311.95)">
    <path d="m164.73 470.04v5.7143h2.5893v-5.7143h-2.5893z" fill="url(#b)"/>
    <path d="m164.2 467.81v3.125h3.6607v-3.125h-3.6607z" fill="url(#a)"/>
    <path d="m164.2 475.13v3.125h3.6607v-3.125h-3.6607z" fill="url(#a)"/>
   </g>
   <g transform="matrix(0 1.1206 -1.0679 0 1422.9 311.95)">
    <path d="m164.73 470.04v5.7143h2.5893v-5.7143h-2.5893z" fill="url(#b)"/>
    <path d="m164.2 467.81v3.125h3.6607v-3.125h-3.6607z" fill="url(#a)"/>
    <path d="m164.2 475.13v3.125h3.6607v-3.125h-3.6607z" fill="url(#a)"/>
   </g>
   <g transform="matrix(0 1.1206 -1.0679 0 1399.3 321.15)">
    <path d="m164.73 470.04v5.7143h2.5893v-5.7143h-2.5893z" fill="url(#b)"/>
    <path d="m164.2 467.81v3.125h3.6607v-3.125h-3.6607z" fill="url(#a)"/>
    <path d="m164.2 475.13v3.125h3.6607v-3.125h-3.6607z" fill="url(#a)"/>
   </g>
   <g transform="matrix(0 1.1206 -1.0679 0 1379.3 320.75)">
    <path d="m164.73 470.04v5.7143h2.5893v-5.7143h-2.5893z" fill="url(#b)"/>
    <path d="m164.2 467.81v3.125h3.6607v-3.125h-3.6607z" fill="url(#a)"/>
    <path d="m164.2 475.13v3.125h3.6607v-3.125h-3.6607z" fill="url(#a)"/>
   </g>
   <g transform="matrix(0 1.1206 -1.0679 0 1346.5 320.75)">
    <path d="m164.73 470.04v5.7143h2.5893v-5.7143h-2.5893z" fill="url(#b)"/>
    <path d="m164.2 467.81v3.125h3.6607v-3.125h-3.6607z" fill="url(#a)"/>
    <path d="m164.2 475.13v3.125h3.6607v-3.125h-3.6607z" fill="url(#a)"/>
   </g>
   <path d="m804.23 690.42h1.753c0.8591 0 1.5507 0.72575 1.5507 1.6273v1.698c0 0.9015-0.69162 1.6273-1.5507 1.6273h-1.753c-0.8591 0-1.5507-0.72576-1.5507-1.6273v-1.698c0-0.90151 0.69163-1.6273 1.5507-1.6273zm14.504-0.20973h-2.5311v-2.5092h2.5311v2.5092zm4.1672 0h-2.6358v-2.5092h2.6358v2.5092zm0.0128 7.8812h-6.7238v-2.5363h6.7238v2.5363zm9.4786-2.5092h-2.5311v2.5092h2.5311v-2.5092zm4.1672 0h-2.6358v2.5092h2.6358v-2.5092zm0.0127-7.8812h-6.7238v2.5363h6.7238v-2.5363zm18.667 6.7161v4.8395h4.7976v-4.8395h-4.7976zm0-7.9677v5.0396h4.7976v-5.0396h-4.7976zm133.1-184.31h1.753c0.8591 0 1.5507 0.72576 1.5507 1.6273v1.698c0 0.9015-0.69162 1.6272-1.5507 1.6272h-1.753c-0.8591 0-1.5507-0.72575-1.5507-1.6272v-1.698c0-0.9015 0.69163-1.6273 1.5507-1.6273zm6.1241 6.66h1.753c0.8591 0 1.5507 0.72575 1.5507 1.6272v1.698c0 0.9015-0.69162 1.6272-1.5507 1.6272h-1.753c-0.8591 0-1.5507-0.72575-1.5507-1.6272v-1.698c0-0.9015 0.69163-1.6272 1.5507-1.6272zm-11.406 73.995h1.753c0.8591 0 1.5507 0.72576 1.5507 1.6273v1.698c0 0.9015-0.69162 1.6272-1.5507 1.6272h-1.753c-0.8591 0-1.5507-0.72575-1.5507-1.6272v-1.698c0-0.9015 0.69163-1.6273 1.5507-1.6273zm-15.833 95.522h1.753c0.8591 0 1.5507 0.72575 1.5507 1.6273v1.698c0 0.9015-0.69162 1.6273-1.5507 1.6273h-1.753c-0.8591 0-1.5507-0.72576-1.5507-1.6273v-1.698c0-0.90151 0.69163-1.6273 1.5507-1.6273zm-155.61-38.488h1.753c0.8591 0 1.5507 0.72575 1.5507 1.6272v1.698c0 0.9015-0.69161 1.6272-1.5507 1.6272h-1.753c-0.8591 0-1.5507-0.72575-1.5507-1.6272v-1.698c0-0.9015 0.69162-1.6272 1.5507-1.6272zm28.988-143.14h-2.4121v2.6331h2.4121v-2.6331zm3.9712 0h-2.5118v2.6331h2.5118v-2.6331zm28.829 0h-2.4121v2.6331h2.4121v-2.6331zm3.9712 0h-2.5118v2.6331h2.5118v-2.6331zm16.014 0h-2.4121v2.6331h2.4121v-2.6331zm3.9712 0h-2.5118v2.6331h2.5118v-2.6331zm-77.281 9.6156v2.6265h6.3742v-2.6265h-6.3742zm94.473-0.80732v2.6265h6.3742v-2.6265h-6.3742zm15.599 0v2.6265h6.3742v-2.6265h-6.3742zm-127.82 66.309v2.5311h2.5092v-2.5311h-2.5092zm0-4.1672v2.6358h2.5092v-2.6358h-2.5092zm8.9077 1.486v6.7238h2.5029v-6.7238h-2.5029zm121.92 126.88v2.6265h6.3742v-2.6265h-6.3742zm20.333-3e-3h-2.4121v2.6331h2.4121v-2.6331zm3.9712 0h-2.5118v2.6331h2.5118v-2.6331zm8.1142-199.3v2.6265h6.3742v-2.6265h-6.3742zm-17.425-0.0102h-2.4121v2.6331h2.4121v-2.6331zm3.9712 0h-2.5118v2.6331h2.5118v-2.6331zm47.026 19.901v6.6888h2.5363v-6.6888h-2.5363zm-9.5187 27.968v2.5311h2.5092v-2.5311h-2.5092zm0-4.1672v2.6358h2.5092v-2.6358h-2.5092zm8e-3 12.865v6.6888h2.5029v-6.6888h-2.5029zm9.5274 12.046v2.5311h2.5092v-2.5311h-2.5092zm0-4.1672v2.6358h2.5092v-2.6358h-2.5092zm-0.0163 17.3v6.7238h2.5363v-6.7238h-2.5363zm0.0163 20.066v2.5311h2.5092v-2.5311h-2.5092zm0-4.1672v2.6358h2.5092v-2.6358h-2.5092zm-9.5274 16.494v6.7238h2.5029v-6.7238h-2.5029zm-11.847 77.323v2.6265h6.3742v-2.6265h-6.3742zm21.375-19.531v2.5311h2.5092v-2.5311h-2.5092zm0-4.1672v2.6358h2.5092v-2.6358h-2.5092zm0-12.202v2.5311h2.5092v-2.5311h-2.5092zm0-4.1672v2.6358h2.5092v-2.6358h-2.5092zm-10.679 4.9133v4.8395h4.7976v-4.8395h-4.7976zm0-7.9677v5.0396h4.7976v-5.0396h-4.7976zm-187.3-17.018v4.8395h4.7976v-4.8395h-4.7976zm0-7.9677v5.0396h4.7976v-5.0396h-4.7976zm8.9046 3.7227v4.8395h4.7976v-4.8395h-4.7976zm0-7.9677v5.0396h4.7976v-5.0396h-4.7976zm0-8.7294v4.8395h4.7976v-4.8395h-4.7976zm0-7.9677v5.0396h4.7976v-5.0396h-4.7976zm0-9.2954v4.8395h4.7976v-4.8395h-4.7976zm0-7.9677v5.0396h4.7976v-5.0396h-4.7976zm0-40.708v4.8395h4.7976v-4.8395h-4.7976zm0-7.9677v5.0396h4.7976v-5.0396h-4.7976zm44.503-36.47v2.6265h6.3742v-2.6265h-6.3742zm1.6966 7.601h-4.6118v5.0344h4.6118v-5.0344zm7.593 0h-4.8026v5.0344h4.8026v-5.0344z" fill="#fffdcf"/>
  </g>
  <g transform="matrix(.86957 0 0 .86957 20.324 48.686)">
   <path d="m207.97 184.44-71.162 85.686c-2.555-2.3988-4.2077-5.9957-4.1931-10.914l1.583-125.47c-0.14064-5.617 1.4465-9.2019 3.9106-11.447l69.862 62.149z" fill="url(#dh)"/>
   <path d="m284.26 269.1c-3.09 3.141-7.6074 4.3699-12.22 4.2791l-125 0.4822c-3.764-2e-3 -7.5698-1.2894-10.263-3.7545l70.887-85.84 76.6 84.834z" fill="url(#dg)"/>
   <path d="m149.04 118.8 122.72-0.2391c5.1618 0.1565 10.083 1.4012 13.134 5.207l-77.498 63.043-69.35-64.462c2.8963-2.6591 7.0492-3.4877 10.998-3.5496z" fill="url(#df)"/>
   <path d="m284.75 123.6c2.0674 2.5254 3.3669 6.2687 3.2718 11.533l0.2246 121.87c0.16535 5.7863-1.5474 9.7899-4.287 12.389l-77.644-84.849 78.435-60.942z" fill="url(#de)"/>
  </g>
  <path transform="matrix(.92863 0 0 .97446 -27.675 -312.81)" d="m185.73 482.17 127.18-0.0131 3.5613 2.9321-0.75242 121.36-4.304 3.9867-126.7-0.2094-2.5766-2.982c0.42783-40.789 1.1713-83.036 1.5992-122.87l1.9988-2.1982z" fill="#303030" filter="url(#h)"/>
  <path d="m145.94 158.63c38.578 0.22667 78.377 0.45333 115.88 0.68l1.5259 1.3578-1.2821 117.02-1.4351 1.767-116.09 0.36459-1.0634-1.258 1.298-118.59 1.1681-1.3406z" fill="url(#dd)"/>
  <g transform="matrix(.86957 0 0 .86957 -240.36 48.686)">
   <path transform="matrix(1.0679 0 0 1.1206 244.8 -415.72)" d="m145.94 632.25 1.5-173.25 13.594-12.312h181.5l10.375 10.781" fill="none" filter="url(#dt)" stroke="#000" stroke-width="1.8282"/>
   <path d="m372.95 326.35 8.0428 8.5448h260.41l8.243-8.5448-0.0667-264.01" fill="none" filter="url(#dk)" stroke="#000" stroke-width="2"/>
   <path d="m389.64 57.573-15.318 13.518-1.3683 255.26 8.0428 8.5448h260.41l8.243-8.5448-0.0667-264.01-3.671-4.2724-256.27-0.49028h-4e-5zm27.132 27.28h193.83l11.08 12.082-1.6353 197.13-11.547 11.732-196.7-1.1556-11.146-11.837 1.6019-194.15 14.517-13.798z" fill="url(#dn)"/>
  </g>
  <g transform="translate(0 5.7574)">
   <path d="m471.87 87.819-2.6873 1.8129-72.883 225.81 3.3226 5.8231 248.23 57.678 3.7655-2.286 46.68-261.05-1.5582-2.2031-224.87-25.589" fill-opacity=".99216" filter="url(#dm)" opacity=".6"/>
   <path d="m465.49 77.98-2.6873 1.8129-72.883 225.81 3.3226 5.8231 248.23 57.678 3.7655-2.286 46.68-261.05-1.5582-2.2031-224.87-25.589" fill="url(#dq)"/>
   <path d="m510.89 121.23-3.4712-0.45434-1.0414 3.7648 3.4781 0.46334 1.0346-3.7738m5.7465 0.75217-3.6393-0.47634-1.0304 3.7793 3.6466 0.48577 1.0231-3.7887m19.362 2.5344-3.5755-0.46801-0.99092 3.8298 3.583 0.47731 0.98347-3.8391m5.9199 0.77484-3.749-0.49071-0.97899 3.8447 3.7569 0.50048 0.97115-3.8545m9.6748 1.5839-3.6421-0.47739-0.95874 3.872 3.6498 0.4869 0.95101-3.8816m6.0303 0.79039-3.819-0.50056-0.94633 3.8873 3.8271 0.51056 0.93822-3.8973m14.48-5.4514-3.7076-0.47031-0.90947 3.8828 3.7155 0.47988 0.90156-3.8923m6.1387 0.77874-3.8878-0.49318-0.89667 3.8981 3.8964 0.50324 0.88808-3.9082m6.5198 0.82708-3.7615-0.47718-0.88206 3.9153 3.7698 0.4869 0.87375-3.925m6.2284 0.79012-3.9446-0.50041-0.8687 3.9309 3.9534 0.51061 0.85991-3.9411m5.1345 7.7762-3.8317-0.50153-0.86183 3.9863 3.8404 0.51161 0.85313-3.9963m6.3452 0.83052-4.0186-0.526-0.84797 4.0024 4.0278 0.53656 0.83881-4.013m30.444 39.525-0.75831 4.1407 4.2971 0.65729 0.74827-4.1524-4.287-0.64562m1.2394-6.7676-0.78257 4.2734 4.2809 0.63862 0.77215-4.2853-4.2705-0.62668m-18.582 52.501-0.82784 4.3811 4.3694 0.78741 0.81742-4.394-4.359-0.77448m1.3528-7.1593-0.85418 4.5205 4.3527 0.76672 0.84349-4.5337-4.342-0.75348m4.7118 23.007-0.8221 4.4891 4.4467 0.83825 0.81141-4.5026-4.436-0.82473m1.3433-7.3349-0.84816 4.6313 4.4295 0.81661 0.83699-4.6451-4.4183-0.80276m-19.806 57.103-0.89991 4.7626 4.5246 0.98957 0.88875-4.7776-4.5134-0.97452m1.4701-7.7801-0.92819 4.9121 4.5068 0.9655 0.91672-4.9275-4.4953-0.9501m13.326-21.966-0.84338 4.6054 4.4949 0.89974 0.83241-4.6196-4.484-0.88555m1.3781-7.5242-0.87013 4.7507 4.4774 0.87706 0.85867-4.7652-4.4659-0.86255m-10.223 5.7773-0.86497 4.5775 4.4504 0.89082 0.85419-4.5915-4.4396-0.87681m1.4132-7.4789-0.89228 4.7221 4.4331 0.86842 0.8812-4.7365-4.4221-0.85406m9.2288-48.841-0.80415 4.2557 4.3164 0.72216 0.79402-4.268-4.3062-0.70991m1.3143-6.955-0.82982 4.3916 4.3 0.70255 0.81942-4.4042-4.2896-0.68999m-147-44.332-1.0887 3.6933 3.5598 0.53614 1.082-3.7026-3.5531-0.52681m1.7806-6.0404-1.1245 3.8148 3.5491 0.52122 1.1176-3.8244-3.5422-0.51164m1.0817 19.671-1.0952 3.7748 3.611 0.57303 1.0884-3.7845-3.6043-0.5633m1.791-6.1732-1.1311 3.8985 3.6002 0.55747 1.124-3.9085-3.5931-0.54749m-8.3683 5.1452-1.1075 3.757 3.5823 0.56845 1.1007-3.7667-3.5755-0.55881m1.8112-6.1444-1.1438 3.8804 3.5715 0.55303 1.1369-3.8902-3.5646-0.54315m13.818-24.028-1.0495 3.6173 3.5541 0.49356 1.043-3.6263-3.5476-0.48457m1.7166-5.9165-1.0841 3.7366 3.5436 0.47919 1.0772-3.7458-3.5367-0.46998m-9.5423 9.6152-1.0682 3.6237 3.5347 0.50114 1.0617-3.6327-3.5282-0.49214m1.7472-5.9271-1.1034 3.7432 3.5242 0.48673 1.0966-3.7525-3.5175-0.47749m2.372-8.0471-1.0477 3.5544 3.5094 0.46646 1.0412-3.563-3.5029-0.45778m1.7138-5.814-1.0823 3.6719 3.499 0.45256 1.0757-3.6808-3.4924-0.44366m14.566 1.7074-3.4019-0.43187-1.0597 3.6958 3.4085 0.44055 1.0531-3.7044m5.6314 0.71488-3.5662-0.45273-1.0491 3.7097 3.5733 0.46184 1.042-3.7188m108.66 20.495-3.9036-0.51023-0.82372 4.0282 3.9127 0.52051 0.81464-4.0384m6.4646 0.84495-4.0943-0.53514-0.8092 4.0447 4.1038 0.54593 0.79975-4.0554m-69.033 156.29-4.1185-0.93403-1.0907 4.8794 4.1283 0.94861 1.0809-4.894m6.8241 1.5476-4.3226-0.9803-1.0748 4.9028 4.3329 0.99562 1.0644-4.9181m9.3738 2.1259-4.1963-0.95169-1.0518 4.9365 4.2066 0.96659 1.0415-4.9514m6.9534 1.577-4.4045-0.9989-1.0352 4.9605 4.4154 1.0146 1.0244-4.9762m16.419 10.842-4.3312-0.99979-0.99894 5.0663 4.3421 1.0154 0.98806-5.0819m7.1777 1.6569-4.5467-1.0496-0.98128 5.0914 4.5584 1.066 0.96954-5.1079m8.0339 1.8545-4.4063-1.0171-0.96017 5.121 4.4178 1.0331 0.94872-5.137m7.3026 1.6857-4.6259-1.0678-0.94166 5.1467 4.638 1.0846 0.92962-5.1635m14.622-154.66-0.76403 4.0438 4.2242 0.61339 0.7543-4.0549-4.2145-0.60224m1.249-6.6099-0.78867 4.1739 4.2086 0.59553 0.77864-4.1853-4.1985-0.58411m-99.367 141.61-1.0926 4.6717 4.228 0.98728 1.0831-4.6862-4.2185-0.97281m1.7852-7.6331-1.1272 4.8195 4.2127 0.96416 1.1174-4.8343-4.2029-0.94936m-13.744 4.8754-1.1193 4.6308 4.1685 0.97338 1.11-4.645-4.1593-0.95915m1.8288-7.5667-1.1547 4.7776 4.1537 0.95065 1.1451-4.7922-4.1442-0.93608m-19.131 3.5767-1.1568 4.5718 4.083 0.95342 1.1481-4.5857-4.0743-0.93957m1.8905-7.4709-1.1937 4.7173 4.069 0.93124 1.1846-4.7315-4.06-0.91705m108.06 21.433-0.89333 4.8776 4.6045 1.0455 0.88178-4.8933-4.593-1.0298m1.4591-7.9671-0.92121 5.0301 4.586 1.0204 0.90928-5.0462-4.5741-1.0043m-134.5-208.38-10.361-1.155-3.4316 10.98 10.42 1.2341 3.3721-11.059" fill="#c6c48e"/>
   <path d="m440.23 270.1 1.3797 0.30416c0.67716 0.14924 1.0337 0.92423 0.7987 1.7382l-0.44329 1.5353c-0.23562 0.81625-0.97206 1.3519-1.6504 1.2003l-1.3823-0.30878c-0.67676-0.15115-1.0301-0.92855-0.79316-1.7425l0.44562-1.5309c0.23629-0.81167 0.96964-1.3448 1.6452-1.1959m11.542 2.342-2.0163-0.44421 0.64576-2.2708 2.0144 0.44081-0.6438 2.2742m3.3305 0.73376-2.1082-0.46445 0.64274-2.2763 2.1062 0.46089-0.64072 2.2799m-2.0131 7.2034-5.3834-1.2112 0.65825-2.3148 5.3782 1.2019-0.65311 2.3242m8.2886-0.59124-2.0478-0.45768-0.6407 2.309 2.0498 0.46119 0.63877-2.3125m3.3828 0.75604-2.1412-0.47856-0.6376 2.3146 2.1433 0.48224 0.63548-2.3183m1.9952-7.2382-5.4344-1.1892-0.64227 2.3141 5.4399 1.1985 0.63684-2.3234m13.629 9.5794-1.1963 4.5221 3.9911 0.90077 1.1886-4.5354-3.9833-0.8875m1.9558-7.3932-1.2351 4.6687 3.9787 0.87954 1.227-4.6823-3.9706-0.86596m149.79-141.45 1.5268 0.18611c0.74915 0.0913 1.2395 0.76024 1.0987 1.5004l-0.26554 1.396c-0.14111 0.7422-0.85984 1.2651-1.6106 1.1718l-1.5302-0.19002c-0.74887-0.093-1.2363-0.76424-1.0934-1.5044l0.26876-1.3923c0.14245-0.73818 0.85827-1.2587 1.6055-1.1676m4.31 6.1406 1.5404 0.19253c0.75585 0.0945 1.2524 0.77218 1.1129 1.5201l-0.26342 1.4107c-0.13995 0.75001-0.86303 1.2766-1.6206 1.1802l-1.5438-0.19655c-0.75564-0.0961-1.2493-0.77625-1.1076-1.5242l0.26663-1.4069c0.14129-0.74592 0.86157-1.2701 1.6156-1.1759m-22.309 62.045 1.5746 0.25379c0.77281 0.12453 1.2702 0.87239 1.1146 1.6774l-0.29347 1.5185c-0.15604 0.80735-0.90568 1.3558-1.6801 1.229l-1.5782-0.25837c-0.77251-0.12645-1.2667-0.87684-1.1089-1.6819l0.29686-1.5141c0.15738-0.80274 0.90382-1.3485 1.6746-1.2243m-32.238 86.594 1.6186 0.34528c0.79422 0.16944 1.2897 1.02 1.1102 1.9079l-0.33871 1.6748c-0.18007 0.89053-0.96665 1.4694-1.7628 1.2973l-1.6223-0.35075c-0.79394-0.17167-1.2859-1.0251-1.1039-1.9128l0.34222-1.6696c0.18152-0.8851 0.9646-1.461 1.7567-1.2921m-123.07-61.969 1.3638 0.26117c0.6692 0.12815 1.0307 0.85472 0.80982 1.6296l-0.41664 1.4616c-0.22146 0.77703-0.93998 1.2982-1.6104 1.168l-1.3663-0.2654c-0.66881-0.1299-1.0273-0.85876-0.8045-1.6336l0.41887-1.4575c0.22213-0.77278 0.93785-1.2916 1.6053-1.1637m54.387-111.56-1.8241-0.21776-0.54186 1.9828 1.826 0.2202 0.54001-1.9852m3.012 0.35957-1.9062-0.22758-0.53904 1.9867 1.9082 0.23011 0.53712-1.9892m22.191 2.6491-1.879-0.2243-0.51685 2.0163 1.8808 0.22682 0.515-2.0188m3.1025 0.37036-1.9636-0.23441-0.51385 2.0203 1.9656 0.23703 0.51182-2.023m12.626 1.5072-1.9135-0.22841-0.50085 2.0372 1.9155 0.231 0.49882-2.0398m3.1596 0.37721-1.9998-0.23875-0.49756 2.0414 2.0019 0.24141 0.49552-2.044m-61.522 0.0979-0.55871 1.9783 4.773 0.59685 0.55416-1.9847-4.7684-0.59045m73.72 8.4724-0.48409 2.0759 5.2014 0.64846 0.47866-2.083-5.1959-0.64142m12.771 1.5765-0.47044 2.0932 5.2779 0.658 0.46471-2.1004-5.2722-0.65083m-114.32 38.763-0.58701 2.0156 1.8899 0.29647 0.58547-2.0183-1.8884-0.29378m0.96343-3.3074-0.60892 2.0903 1.8874 0.29215 0.60706-2.0931-1.8855-0.28938m6.3736 2.2137-1.5423 5.3766 1.9019 0.29977 1.5376-5.3838-1.8971-0.29259m71.905 131.02-0.57511 2.5778 5.7458 1.2946 0.56831-2.5883-5.739-1.2841m18.442 4.1233-2.2083-0.4941-0.55726 2.6142 2.2109 0.49816 0.55466-2.6182m3.6478 0.81618-2.309-0.51663-0.553 2.6207 2.3118 0.52089 0.55019-2.625m44.153-177.07-0.4335 2.1142 5.4374 0.65571 0.4273-2.1215-5.4312-0.64838m-14.68-1.7608-2.0133-0.24034-0.45328 2.097 2.0156 0.24306 0.45095-2.0997m3.3247 0.39691-2.1043-0.25122-0.44959 2.1013 2.1066 0.25404 0.44726-2.1041m37.278 21.281-1.0433 5.613 2.2543 0.29713 1.0366-5.621-2.2477-0.28913m-12.904 22.535-0.41568 2.1723 2.2334 0.32 0.41314-2.1754-2.2309-0.31688m0.68199-3.5636-0.43098 2.2521 2.2292 0.315 0.42837-2.2553-2.2266-0.3118m-2.1063 11.054-1.1114 5.808 2.2408 0.33529 1.1046-5.8164-2.234-0.32687m6.5725 11.798-0.41528 2.2342 2.2759 0.34953 0.41266-2.2375-2.2733-0.34623m0.68113-3.665-0.43049 2.3161 2.2717 0.34426 0.42779-2.3195-2.269-0.34085m-2.8629 15.323-1.1219 6.0356 2.319 0.37655 1.1146-6.0448-2.3117-0.36743m-3.3583 18.149-0.43078 2.318 2.3111 0.39434 0.42807-2.3215-2.3084-0.39081m0.70672-3.8021-0.44659 2.4028 2.3068 0.38869 0.44378-2.4064-2.304-0.38504m-11.578 13.613-1.1906 6.2218 2.3007 0.4127 1.1834-6.2313-2.2935-0.40318m-25.43 72.06-0.52091 2.6291 6.0006 1.324 0.51345-2.64-5.9932-1.3131m23.897-15.132-0.46675 2.5111 2.3891 0.49976 0.46384-2.5152-2.3862-0.49566m0.76544-4.1182-0.4837 2.6024 2.3844 0.4932 0.4807-2.6066-2.3814-0.48898m2.22-11.945-0.45802 2.4639 2.3705 0.47373 0.45512-2.4678-2.3676-0.4698m0.751-4.041-0.4746 2.5536 2.3659 0.46741 0.47159-2.5577-2.3629-0.46334m-10.896 2.7759-0.90045 4.6894 4.4936 0.90579 0.89028-4.7036-4.4834-0.8915m1.4716-7.6642-0.92922 4.8394 4.4772 0.88292 0.91866-4.8541-4.4666-0.86826m-154.29-45.261-1.1916 4.0829 3.6916 0.69279 1.185-4.0938-3.685-0.68185m1.9489-6.6778-1.2308 4.2174 3.6811 0.67527 1.224-4.2286-3.6744-0.66404m5.9336 4.3635-1.1741 4.0852 3.7169 0.68895 1.1675-4.0962-3.7103-0.67798m1.9205-6.6816-1.2128 4.2198 3.7062 0.67139 1.2059-4.231-3.6994-0.66014m2.0861-7.2578-1.1543 4.0156 3.6941 0.65152 1.1476-4.0262-3.6874-0.6409m1.8878-6.5681-1.1923 4.1481 3.6835 0.6345 1.1855-4.159-3.6767-0.6236m2.1831-7.5954-1.134 3.9454 3.6707 0.61405 1.1275-3.9557-3.6642-0.60379m1.855-6.4537-1.1715 4.0759 3.6602 0.59759 1.1647-4.0865-3.6534-0.58702m9.2488-32.178-1.0799 3.7572 3.606 0.51472 1.0736-3.7666-3.5997-0.50534m1.7668-6.1469-1.1159 3.8823 3.596 0.49968 1.1093-3.8919-3.5894-0.49006m41.361-23.536-0.52829 1.9944 4.9059 0.5916 0.52344-2.0009-4.901-0.58509m-0.22707 5.9464-3.5439-0.43551-1.0258 3.8506 3.5507 0.44466 1.019-3.8598m5.8672 0.72102-3.7157-0.45663-1.0148 3.8653 3.7228 0.46621 1.0077-3.8749" fill="#fffdcf"/>
   <path d="m544.42 205.85-43.469-66.401c2.2251-1.5366 5.1052-2.3405 8.5832-1.8742l97.242 14.703c4.623 0.50113 7.3524 2.0928 8.8649 4.2148l-71.222 49.357" fill="url(#dc)"/>
   <path d="m466.81 253.6c-1.5859-3.21-1.3279-7.2889-0.0472-11.195l29.37-96.211c0.81241-2.6217 2.5313-5.1362 4.8349-6.7635l53.727 63.71-87.885 50.461" fill="url(#db)"/>
   <path d="m617.01 164.31-20.943 105.93c-1.0417 4.932-3.0573 9.4478-7.1179 11.629l-42.928-80.479 69.572-44.96c1.807 2.5138 1.9193 4.8072 1.4169 7.8766" fill="url(#da)"/>
   <path d="m589.13 281.77c-2.7032 1.4894-6.3828 1.9722-11.176 0.77767l-102.83-23.336c-4.5468-0.88698-7.1902-3.0925-8.4638-5.9273l80.961-57.563 41.506 86.049" fill="url(#cz)"/>
   <path transform="matrix(1.6096 .02156 .46512 1.3561 -83.857 -140.74)" d="m368.36 216.96-38.637 83.493-2.8243 2.1755-62.622-16.697-0.34211-3.3663 42.38-77.274 2.1564-1.2165 59.313 11.492 0.57641 1.3931h-1e-5" fill="#303030" filter="url(#h)"/>
   <path d="m607.61 161.28c-6.2462 34.375-15.262 70.09-22.505 109.92l-1.6615 1.416-108.69-23.941-1.0879-1.7577 32.185-103.08 1.236-0.70563 99.502 16.991 1.0173 1.1551" fill="url(#cy)"/>
   <path d="m393.63 300.15 4.4152 7.9341 234.24 55.426 10.033-7.2781 45.656-247.74m-262.62 166.02 50.429-161.43 14.217-9.147 159.46 19.088 7.8481 11.262" fill="none" filter="url(#dk)" stroke="#000" stroke-width="2"/>
   <path d="m475.73 81.246-14.45 8.6647-67.647 210.24 4.4152 7.9341 234.24 55.426 10.033-7.2781 45.656-247.74-2.6649-3.8725-209.58-23.375 2e-4 2e-5m14.271 22.69 159.46 19.088 7.8482 11.262-37.86 181.91-13.617 9.6082-174.68-38.546-5.7921-12.75 50.429-161.43 14.217-9.147" fill="url(#dp)"/>
   <path d="m609.5 312.98-6.0453-1.3982-0.56767 3.0485 6.056 1.4131 0.55699-3.0634" fill="url(#cx)"/>
   <path d="m611.73 312.96-3.3207-0.76665-0.78984 4.3277 3.329 0.7782 0.7815-4.3392" fill="url(#cw)"/>
   <path d="m604.46 311.17-3.3207-0.76665-0.78984 4.3277 3.329 0.7782 0.7815-4.3392" fill="url(#cv)"/>
   <path d="m594.26 309.53-6.0453-1.3982-0.56767 3.0485 6.056 1.4131 0.55699-3.0634" fill="url(#cu)"/>
   <path d="m596.48 309.51-3.3207-0.76665-0.78984 4.3277 3.329 0.7782 0.7815-4.3392" fill="url(#ct)"/>
   <path d="m589.21 307.72-3.3207-0.76665-0.78984 4.3277 3.329 0.7782 0.7815-4.3392" fill="url(#cs)"/>
   <path d="m570.51 297.02-5.7167-1.3266-0.53681 2.8922 5.7268 1.3406 0.52671-2.9063" fill="url(#cr)"/>
   <path d="m572.61 297.01-3.1402-0.72734-0.7469 4.1058 3.148 0.7383 0.73901-4.1168" fill="url(#cq)"/>
   <path d="m565.74 295.31-3.1401-0.72734-0.7469 4.1058 3.148 0.7383 0.73901-4.1168" fill="url(#cp)"/>
   <path d="m554.42 293.31-5.7167-1.3266-0.53681 2.8922 5.7268 1.3406 0.52671-2.9063" fill="url(#co)"/>
   <path d="m556.53 293.29-3.1402-0.72734-0.7469 4.1058 3.148 0.7383 0.73901-4.1168" fill="url(#cn)"/>
   <path d="m549.65 291.6-3.1401-0.72734-0.7469 4.1058 3.148 0.7383 0.73901-4.1168" fill="url(#cm)"/>
   <path d="m610.01 302.42 1.2141-6.5577 2.8975 0.58893-1.2055 6.574-2.9062-0.60521" fill="url(#cl)"/>
   <path d="m609.1 304.63 0.66815-3.6016 4.1068 0.85202-0.6614 3.6143-4.1135-0.86471" fill="url(#ck)"/>
   <path d="m610.46 296.7 0.66815-3.6016 4.1068 0.85202-0.66141 3.6143-4.1135-0.86472" fill="url(#cj)"/>
   <path d="m603.61 286 1.2141-6.5577 2.8975 0.58893-1.2055 6.574-2.9062-0.60521" fill="url(#ci)"/>
   <path d="m602.7 288.21 0.66815-3.6016 4.1068 0.85202-0.6614 3.6143-4.1135-0.86471" fill="url(#ch)"/>
   <path d="m604.06 280.28 0.66815-3.6016 4.1068 0.85202-0.66141 3.6143-4.1135-0.86472" fill="url(#cg)"/>
   <path d="m609.7 254.6 1.0918-6.2303 2.6055 0.55953-1.084 6.2458-2.6133-0.57499" fill="url(#cf)"/>
   <path d="m608.88 256.7 0.60082-3.4218 3.693 0.80948-0.59476 3.4338-3.699-0.82155" fill="url(#ce)"/>
   <path d="m610.11 249.16 0.60083-3.4218 3.693 0.80949-0.59476 3.4338-3.699-0.82155" fill="url(#cd)"/>
   <path d="m622.2 236.22 1.0918-6.2303 2.6055 0.55954-1.084 6.2458-2.6133-0.575" fill="url(#cc)"/>
   <path d="m621.38 238.32 0.60082-3.4218 3.693 0.80948-0.59476 3.4338-3.699-0.82154" fill="url(#cb)"/>
   <path d="m622.61 230.79 0.60083-3.4218 3.693 0.80948-0.59476 3.4338-3.699-0.82154" fill="url(#ca)"/>
   <path d="m618.45 256.35 1.0918-6.2303 2.6055 0.55953-1.084 6.2458-2.6133-0.57499" fill="url(#bz)"/>
   <path d="m617.63 258.45 0.60082-3.4218 3.693 0.80948-0.59476 3.4338-3.699-0.82155" fill="url(#by)"/>
   <path d="m618.86 250.91 0.60083-3.4218 3.693 0.80949-0.59476 3.4338-3.699-0.82155" fill="url(#bx)"/>
   <path d="m616.28 220.4 1.0724-5.9125 2.363 0.50333-1.0655 5.9271-2.3699-0.5179" fill="url(#bw)"/>
   <path d="m615.5 222.39 0.59005-3.2472 3.349 0.72896-0.58468 3.2586-3.3544-0.74032" fill="url(#bv)"/>
   <path d="m616.72 215.25 0.59005-3.2472 3.349 0.72896-0.58468 3.2586-3.3544-0.74032" fill="url(#bu)"/>
   <path d="m620.41 198.2 1.09-5.9018 2.3913 0.44826-1.083 5.9161-2.3983-0.46259" fill="url(#bt)"/>
   <path d="m619.63 200.2 0.59976-3.2414 3.3891 0.65083-0.59434 3.2526-3.3945-0.66201" fill="url(#bs)"/>
   <path d="m620.86 193.07 0.59976-3.2414 3.3891 0.65082-0.59434 3.2526-3.3945-0.662" fill="url(#br)"/>
   <path d="m633.41 174.58 1.09-5.9018 2.3913 0.44826-1.083 5.9161-2.3983-0.46259" fill="url(#bq)"/>
   <path d="m632.63 176.58 0.59976-3.2414 3.3891 0.65083-0.59434 3.2526-3.3945-0.66201" fill="url(#bp)"/>
   <path d="m633.86 169.45 0.59976-3.2414 3.3891 0.65082-0.59434 3.2526-3.3945-0.662" fill="url(#bo)"/>
   <path d="m627.53 159.68 1.09-5.6678 2.3913 0.4305-1.083 5.6816-2.3983-0.44426" fill="url(#bn)"/>
   <path d="m626.75 161.61 0.59976-3.1129 3.3891 0.62503-0.59434 3.1236-3.3945-0.63576" fill="url(#bm)"/>
   <path d="m627.98 154.76 0.59976-3.1129 3.3891 0.62503-0.59434 3.1236-3.3945-0.63576" fill="url(#bl)"/>
   <path d="m529.31 295.07 1.4791-6.393 2.4817 0.58884-1.4726 6.4089-2.4882-0.60476" fill="url(#bk)"/>
   <path d="m528.25 297.15 0.81347-3.5111 3.5164 0.85147-0.80842 3.5235-3.5214-0.86389" fill="url(#bj)"/>
   <path d="m530.07 289.49 0.81347-3.5111 3.5164 0.85147-0.80843 3.5235-3.5214-0.86389" fill="url(#bi)"/>
   <path d="m517.37 292.25 1.4791-6.393 2.4817 0.58884-1.4726 6.4089-2.4882-0.60476" fill="url(#bh)"/>
   <path d="m516.31 294.34 0.81347-3.5111 3.5164 0.85147-0.80842 3.5235-3.5214-0.86389" fill="url(#bg)"/>
   <path d="m518.13 286.68 0.81347-3.5111 3.5164 0.85147-0.80843 3.5235-3.5214-0.86389" fill="url(#bf)"/>
   <path d="m499.92 288.3 1.5611-6.2484 2.419 0.62202-1.555 6.2642-2.4251-0.63776" fill="url(#be)"/>
   <path d="m498.85 290.33 0.8585-3.4317 3.4272 0.89816-0.85378 3.444-3.4319-0.91044" fill="url(#bd)"/>
   <path d="m500.77 282.84 0.8585-3.4317 3.4272 0.89816-0.85378 3.444-3.4319-0.91044" fill="url(#bc)"/>
   <path d="m477.28 160.2 1.514-5.4438 1.8058 0.37739-1.5102 5.4568-1.8096-0.39047" fill="url(#bb)"/>
   <path d="m476.36 162 0.83236-2.9898 2.5575 0.54914-0.82941 3-2.5605-0.55934" fill="url(#ba)"/>
   <path d="m478.14 155.79 0.83236-2.9898 2.5575 0.54914-0.82941 3-2.5605-0.55933" fill="url(#az)"/>
   <path d="m470.9 159.07 1.514-5.4438 1.8058 0.37739-1.5102 5.4568-1.8096-0.39047" fill="url(#ay)"/>
   <path d="m469.98 160.88 0.83236-2.9898 2.5575 0.54914-0.82941 3-2.5605-0.55934" fill="url(#ax)"/>
   <path d="m471.77 154.66 0.83236-2.9898 2.5575 0.54914-0.82941 3-2.5605-0.55933" fill="url(#aw)"/>
   <path d="m474.53 146.51 1.514-5.4438 1.8058 0.37739-1.5102 5.4568-1.8096-0.39047" fill="url(#av)"/>
   <path d="m473.61 148.31 0.83236-2.9898 2.5575 0.54914-0.82941 3-2.5605-0.55934" fill="url(#au)"/>
   <path d="m475.39 142.1 0.83236-2.9898 2.5575 0.54914-0.82941 3-2.5605-0.55933" fill="url(#at)"/>
   <path d="m478.59 132.54 1.514-5.2347 1.8058 0.3629-1.5102 5.2473-1.8096-0.37547" fill="url(#as)"/>
   <path d="m477.67 134.27 0.83236-2.875 2.5575 0.52805-0.82941 2.8848-2.5605-0.53785" fill="url(#ar)"/>
   <path d="m479.46 128.3 0.83236-2.875 2.5575 0.52805-0.82941 2.8848-2.5605-0.53785" fill="url(#aq)"/>
   <path d="m486.4 128.91 1.514-5.2347 1.8058 0.3629-1.5102 5.2473-1.8096-0.37547" fill="url(#ap)"/>
   <path d="m485.48 130.65 0.83236-2.875 2.5575 0.52805-0.82941 2.8848-2.5605-0.53785" fill="url(#ao)"/>
   <path d="m487.27 124.67 0.83236-2.875 2.5575 0.52805-0.82941 2.8848-2.5605-0.53785" fill="url(#an)"/>
   <path d="m482.59 118.6 1.514-5.0953 1.8058 0.35324-1.5102 5.1076-1.8096-0.36548" fill="url(#am)"/>
   <path d="m481.67 120.29 0.83236-2.7985 2.5575 0.51399-0.82941 2.808-2.5605-0.52353" fill="url(#al)"/>
   <path d="m483.46 114.47 0.83236-2.7985 2.5575 0.51399-0.82941 2.808-2.5605-0.52353" fill="url(#ak)"/>
   <path d="m616.84 135.53-5.3961-0.6405-0.55896 2.279 5.4054 0.65073 0.54963-2.2893" fill="url(#aj)"/>
   <path d="m618.77 135.26-2.9813-0.35079-0.62001 3.2343 2.989 0.35876 0.61232-3.2422" fill="url(#ai)"/>
   <path d="m612.31 134.53-2.9727-0.3508-0.69957 3.2343 2.9802 0.35876 0.69209-3.2422" fill="url(#ah)"/>
   <path d="m599.94 133.85-5.2077-0.6405-0.53944 2.279 5.2167 0.65073 0.53043-2.2893" fill="url(#ag)"/>
   <path d="m601.79 133.58-2.8772-0.35079-0.59836 3.2343 2.8847 0.35876 0.59094-3.2422" fill="url(#af)"/>
   <path d="m595.57 132.85-2.8689-0.3508-0.67514 3.2343 2.8761 0.35876 0.66792-3.2422" fill="url(#ae)"/>
   <path d="m588.19 125.2-4.9251-0.54899-0.51017 1.9534 4.9336 0.55776 0.50165-1.9622" fill="url(#ad)"/>
   <path d="m589.95 124.96-2.7211-0.30067-0.56589 2.7722 2.7281 0.3075 0.55888-2.779" fill="url(#ac)"/>
   <path d="m584.06 124.34-2.7132-0.30068-0.6385 2.7722 2.7201 0.3075 0.63167-2.779" fill="url(#ab)"/>
   <path d="m575.73 123.73-4.9251-0.54899-0.51017 1.9534 4.9336 0.55776 0.50165-1.9622" fill="url(#aa)"/>
   <path d="m577.49 123.5-2.7211-0.30067-0.56589 2.7722 2.7281 0.3075 0.55888-2.779" fill="url(#z)"/>
   <path d="m571.6 122.87-2.7132-0.30068-0.6385 2.7722 2.7201 0.3075 0.63167-2.779" fill="url(#y)"/>
   <path d="m554.96 128.28-4.9251-0.57304-0.51017 2.039 4.9336 0.58219 0.50165-2.0481" fill="url(#x)"/>
   <path d="m556.72 128.03-2.7211-0.31384-0.56589 2.8936 2.7281 0.32097 0.55888-2.9007" fill="url(#w)"/>
   <path d="m550.83 127.38-2.7132-0.31384-0.6385 2.8936 2.7201 0.32097 0.63167-2.9007" fill="url(#v)"/>
   <path d="m539.4 125.92-4.6896-0.55452-0.48578 1.9731 4.6977 0.56338 0.47767-1.9819" fill="url(#u)"/>
   <path d="m541.07 125.68-2.591-0.3037-0.53882 2.8001 2.5977 0.31059 0.53216-2.807" fill="url(#t)"/>
   <path d="m535.46 125.05-2.5835-0.3037-0.60798 2.8001 2.59 0.3106 0.60147-2.807" fill="url(#s)"/>
   <path d="m514.28 122.59-4.7131-0.5197-0.42435 1.9693 4.7215 0.52847 0.41596-1.978" fill="url(#r)"/>
   <path d="m515.95 122.34-2.6039-0.28447-0.45147 2.7936 2.6108 0.29129 0.44456-2.8004" fill="url(#q)"/>
   <path d="m510.31 121.75-2.5964-0.28453-0.5207 2.7941 2.6031 0.29135 0.51397-2.8009" fill="url(#p)"/>
   <path d="m501.87 114.55-4.6911-0.67757-0.49505 1.8851 4.6991 0.68635 0.48698-1.8939" fill="url(#o)"/>
   <path d="m503.54 114.38-2.5918-0.37178-0.55187 2.6799 2.5985 0.37863 0.54522-2.6867" fill="url(#n)"/>
   <path d="m497.93 113.6-2.5843-0.37156-0.62107 2.6778 2.5908 0.37839 0.61459-2.6846" fill="url(#m)"/>
   <path d="m393.25 311.43 248.23 57.678 3.7655-2.286 46.68-261.05" fill="none" filter="url(#dl)" stroke="#000" stroke-width="1.5"/>
  </g>
  <g transform="translate(336.73 340.82)">
   <path transform="matrix(.92863 0 0 .97446 -27.675 -312.81)" d="m128.88 428.69 256.13 1.3682 1.9853 2.162 2.3634 246.11-2.9359 2.5007-257.14-0.35714-5.6018-4.5515 2.5864-244.73 2.6124-2.4951z" filter="url(#dj)" opacity=".6"/>
   <path d="m84.754 96.675-2.4185 2.4457-1.5489 240.22 5.2174 4.4294 238.78 0.35326 2.7446-2.4457-0.89679-241.98-1.8478-2.1196-240.03-0.89674z" fill="url(#ds)"/>
   <g transform="matrix(.86957 0 0 .86957 -580.36 -300.63)">
    <path d="m839.89 504.29h-4.6118v5.0344h4.6118v-5.0344zm7.593 0h-4.8026v5.0344h4.8026v-5.0344zm25.208 0h-4.6118v5.0344h4.6118v-5.0344zm7.593 0h-4.8026v5.0344h4.8026v-5.0344zm12.392 0.40021h-4.6118v5.0344h4.6118v-5.0344zm7.593 0h-4.8026v5.0344h4.8026v-5.0344zm15.978-9.2052h-4.6118v5.0344h4.6118v-5.0344zm7.593 0h-4.8026v5.0344h4.8026v-5.0344zm8.0062 0h-4.6118v5.0344h4.6118v-5.0344zm7.593 0h-4.8026v5.0344h4.8026v-5.0344zm8.0063 8.805h-4.6118v5.0344h4.6118v-5.0344zm7.593 0h-4.8026v5.0344h4.8026v-5.0344zm42.988 41.644v4.8395h4.7976v-4.8395h-4.7976zm0-7.9677v5.0396h4.7976v-5.0396h-4.7976zm-9.535 61.678v4.8395h4.7976v-4.8395h-4.7976zm0-7.9677v5.0396h4.7976v-5.0396h-4.7976zm9.535 23.576v4.8395h4.7976v-4.8395h-4.7976zm0-7.9677v5.0396h4.7976v-5.0396h-4.7976zm-9.535 62.078v4.8395h4.7976v-4.8395h-4.7976zm0-7.9677v5.0396h4.7976v-5.0396h-4.7976zm9.535-24.771v4.8395h4.7976v-4.8395h-4.7976zm0-7.9677v5.0396h4.7976v-5.0396h-4.7976zm-9.535 7.9677v4.8395h4.7976v-4.8395h-4.7976zm0-7.9677v5.0396h4.7976v-5.0396h-4.7976zm0-53.962v4.8395h4.7976v-4.8395h-4.7976zm0-7.9677v5.0396h4.7976v-5.0396h-4.7976zm-187.3-25.601v4.8395h4.7976v-4.8395h-4.7976zm0-7.9677v5.0396h4.7976v-5.0396h-4.7976zm8.8092 24.382v4.8395h4.7976v-4.8395h-4.7976zm0-7.9677v5.0396h4.7976v-5.0396h-4.7976zm-8.8092 7.9677v4.8395h4.7976v-4.8395h-4.7976zm0-7.9677v5.0396h4.7976v-5.0396h-4.7976zm8.8092-32.997v4.8395h4.7976v-4.8395h-4.7976zm0-7.9677v5.0396h4.7976v-5.0396h-4.7976zm-8.8092 14.123v4.8395h4.7976v-4.8395h-4.7976zm0-7.9677v5.0396h4.7976v-5.0396h-4.7976zm0-10.923v4.8395h4.7976v-4.8395h-4.7976zm0-7.9677v5.0396h4.7976v-5.0396h-4.7976zm19.825-0.18798h-4.6118v5.0344h4.6118v-5.0344zm7.593 0h-4.8026v5.0344h4.8026v-5.0344zm138.67 8.2046h-4.6118v5.0344h4.6118v-5.0344zm7.593 0h-4.8026v5.0344h4.8026v-5.0344zm-40.012 184.1h-4.6118v5.0344h4.6118v-5.0344zm7.593 0h-4.8026v5.0344h4.8026v-5.0344zm10.333 0h-4.6118v5.0344h4.6118v-5.0344zm7.593 0h-4.8026v5.0344h4.8026v-5.0344zm19.105 6.8038h-4.6118v5.0344h4.6118v-5.0344zm7.593 0h-4.8026v5.0344h4.8026v-5.0344zm8.4258 0h-4.6118v5.0344h4.6118v-5.0344zm7.593 0h-4.8025v5.0344h4.8025v-5.0344zm-14.604-164.87v4.8395h4.7976v-4.8395h-4.7976zm0-7.9677v5.0396h4.7976v-5.0396h-4.7976zm-76.204 172.46v4.8395h4.7976v-4.8395h-4.7976zm0-7.9677v5.0396h4.7976v-5.0396h-4.7976zm-13.73 7.9677v4.8395h4.7976v-4.8395h-4.7976zm0-7.9677v5.0396h4.7976v-5.0396h-4.7976zm-20.214 7.9677v4.8395h4.7976v-4.8395h-4.7976zm0-7.9677v5.0396h4.7976v-5.0396h-4.7976zm119.68-2.8384v4.8395h4.7976v-4.8395h-4.7976zm0-7.9677v5.0396h4.7976v-5.0396h-4.7976zm-216.28-214.66h-14.788v15.786h14.788v-15.786z" fill="#c6c48e"/>
    <g transform="matrix(0 1.1206 -1.0679 0 1441.5 504.46)">
     <path d="m164.73 470.04v5.7143h2.5893v-5.7143h-2.5893z" fill="url(#b)"/>
     <path d="m164.2 467.81v3.125h3.6607v-3.125h-3.6607z" fill="url(#a)"/>
     <path d="m164.2 475.13v3.125h3.6607v-3.125h-3.6607z" fill="url(#a)"/>
    </g>
    <g transform="matrix(0 1.1206 -1.0679 0 1502.2 511.26)">
     <path d="m164.73 470.04v5.7143h2.5893v-5.7143h-2.5893z" fill="url(#b)"/>
     <path d="m164.2 467.81v3.125h3.6607v-3.125h-3.6607z" fill="url(#a)"/>
     <path d="m164.2 475.13v3.125h3.6607v-3.125h-3.6607z" fill="url(#a)"/>
    </g>
    <g transform="matrix(1.0679 0 0 1.1206 737.39 162.76)">
     <path d="m164.73 470.04v5.7143h2.5893v-5.7143h-2.5893z" fill="url(#b)"/>
     <path d="m164.2 467.81v3.125h3.6607v-3.125h-3.6607z" fill="url(#a)"/>
     <path d="m164.2 475.13v3.125h3.6607v-3.125h-3.6607z" fill="url(#a)"/>
    </g>
    <g transform="matrix(1.0679 0 0 1.1206 723.66 162.76)">
     <path d="m164.73 470.04v5.7143h2.5893v-5.7143h-2.5893z" fill="url(#b)"/>
     <path d="m164.2 467.81v3.125h3.6607v-3.125h-3.6607z" fill="url(#a)"/>
     <path d="m164.2 475.13v3.125h3.6607v-3.125h-3.6607z" fill="url(#a)"/>
    </g>
    <g transform="matrix(1.0679 0 0 1.1206 703.44 162.76)">
     <path d="m164.73 470.04v5.7143h2.5893v-5.7143h-2.5893z" fill="url(#b)"/>
     <path d="m164.2 467.81v3.125h3.6607v-3.125h-3.6607z" fill="url(#a)"/>
     <path d="m164.2 475.13v3.125h3.6607v-3.125h-3.6607z" fill="url(#a)"/>
    </g>
    <g transform="matrix(0 1.1206 -1.0679 0 1459.4 504.46)">
     <path d="m164.73 470.04v5.7143h2.5893v-5.7143h-2.5893z" fill="url(#b)"/>
     <path d="m164.2 467.81v3.125h3.6607v-3.125h-3.6607z" fill="url(#a)"/>
     <path d="m164.2 475.13v3.125h3.6607v-3.125h-3.6607z" fill="url(#a)"/>
    </g>
    <g transform="matrix(0 1.1206 -1.0679 0 1486.1 511.26)">
     <path d="m164.73 470.04v5.7143h2.5893v-5.7143h-2.5893z" fill="url(#b)"/>
     <path d="m164.2 467.81v3.125h3.6607v-3.125h-3.6607z" fill="url(#a)"/>
     <path d="m164.2 475.13v3.125h3.6607v-3.125h-3.6607z" fill="url(#a)"/>
    </g>
    <g transform="matrix(1.0679 0 0 1.1206 635.09 -15.082)">
     <path d="m164.73 470.04v5.7143h2.5893v-5.7143h-2.5893z" fill="url(#b)"/>
     <path d="m164.2 467.81v3.125h3.6607v-3.125h-3.6607z" fill="url(#a)"/>
     <path d="m164.2 475.13v3.125h3.6607v-3.125h-3.6607z" fill="url(#a)"/>
    </g>
    <g transform="matrix(1.0679 0 0 1.1206 626.28 -8.9262)">
     <path d="m164.73 470.04v5.7143h2.5893v-5.7143h-2.5893z" fill="url(#b)"/>
     <path d="m164.2 467.81v3.125h3.6607v-3.125h-3.6607z" fill="url(#a)"/>
     <path d="m164.2 475.13v3.125h3.6607v-3.125h-3.6607z" fill="url(#a)"/>
    </g>
    <g transform="matrix(1.0679 0 0 1.1206 626.28 9.4688)">
     <path d="m164.73 470.04v5.7143h2.5893v-5.7143h-2.5893z" fill="url(#b)"/>
     <path d="m164.2 467.81v3.125h3.6607v-3.125h-3.6607z" fill="url(#a)"/>
     <path d="m164.2 475.13v3.125h3.6607v-3.125h-3.6607z" fill="url(#a)"/>
    </g>
    <g transform="matrix(1.0679 0 0 1.1206 635.09 25.883)">
     <path d="m164.73 470.04v5.7143h2.5893v-5.7143h-2.5893z" fill="url(#b)"/>
     <path d="m164.2 467.81v3.125h3.6607v-3.125h-3.6607z" fill="url(#a)"/>
     <path d="m164.2 475.13v3.125h3.6607v-3.125h-3.6607z" fill="url(#a)"/>
    </g>
    <g transform="matrix(1.0679 0 0 1.1206 626.28 25.883)">
     <path d="m164.73 470.04v5.7143h2.5893v-5.7143h-2.5893z" fill="url(#b)"/>
     <path d="m164.2 467.81v3.125h3.6607v-3.125h-3.6607z" fill="url(#a)"/>
     <path d="m164.2 475.13v3.125h3.6607v-3.125h-3.6607z" fill="url(#a)"/>
    </g>
    <g transform="matrix(1.0679 0 0 1.1206 626.28 -27.817)">
     <path d="m164.73 470.04v5.7143h2.5893v-5.7143h-2.5893z" fill="url(#b)"/>
     <path d="m164.2 467.81v3.125h3.6607v-3.125h-3.6607z" fill="url(#a)"/>
     <path d="m164.2 475.13v3.125h3.6607v-3.125h-3.6607z" fill="url(#a)"/>
    </g>
    <g transform="matrix(1.0679 0 0 1.1206 823.12 104.97)">
     <path d="m164.73 470.04v5.7143h2.5893v-5.7143h-2.5893z" fill="url(#b)"/>
     <path d="m164.2 467.81v3.125h3.6607v-3.125h-3.6607z" fill="url(#a)"/>
     <path d="m164.2 475.13v3.125h3.6607v-3.125h-3.6607z" fill="url(#a)"/>
    </g>
    <g transform="matrix(1.0679 0 0 1.1206 813.59 104.97)">
     <path d="m164.73 470.04v5.7143h2.5893v-5.7143h-2.5893z" fill="url(#b)"/>
     <path d="m164.2 467.81v3.125h3.6607v-3.125h-3.6607z" fill="url(#a)"/>
     <path d="m164.2 475.13v3.125h3.6607v-3.125h-3.6607z" fill="url(#a)"/>
    </g>
    <g transform="matrix(1.0679 0 0 1.1206 823.12 151.95)">
     <path d="m164.73 470.04v5.7143h2.5893v-5.7143h-2.5893z" fill="url(#b)"/>
     <path d="m164.2 467.81v3.125h3.6607v-3.125h-3.6607z" fill="url(#a)"/>
     <path d="m164.2 475.13v3.125h3.6607v-3.125h-3.6607z" fill="url(#a)"/>
    </g>
    <g transform="matrix(1.0679 0 0 1.1206 813.59 137.71)">
     <path d="m164.73 470.04v5.7143h2.5893v-5.7143h-2.5893z" fill="url(#b)"/>
     <path d="m164.2 467.81v3.125h3.6607v-3.125h-3.6607z" fill="url(#a)"/>
     <path d="m164.2 475.13v3.125h3.6607v-3.125h-3.6607z" fill="url(#a)"/>
    </g>
    <g transform="matrix(1.0679 0 0 1.1206 823.12 83.595)">
     <path d="m164.73 470.04v5.7143h2.5893v-5.7143h-2.5893z" fill="url(#b)"/>
     <path d="m164.2 467.81v3.125h3.6607v-3.125h-3.6607z" fill="url(#a)"/>
     <path d="m164.2 475.13v3.125h3.6607v-3.125h-3.6607z" fill="url(#a)"/>
    </g>
    <g transform="matrix(1.0679 0 0 1.1206 813.59 -1.7326)">
     <path d="m164.73 470.04v5.7143h2.5893v-5.7143h-2.5893z" fill="url(#b)"/>
     <path d="m164.2 467.81v3.125h3.6607v-3.125h-3.6607z" fill="url(#a)"/>
     <path d="m164.2 475.13v3.125h3.6607v-3.125h-3.6607z" fill="url(#a)"/>
    </g>
    <g transform="matrix(1.0679 0 0 1.1206 813.59 43.038)">
     <path d="m164.73 470.04v5.7143h2.5893v-5.7143h-2.5893z" fill="url(#b)"/>
     <path d="m164.2 467.81v3.125h3.6607v-3.125h-3.6607z" fill="url(#a)"/>
     <path d="m164.2 475.13v3.125h3.6607v-3.125h-3.6607z" fill="url(#a)"/>
    </g>
    <g transform="matrix(1.0679 0 0 1.1206 813.59 67.986)">
     <path d="m164.73 470.04v5.7143h2.5893v-5.7143h-2.5893z" fill="url(#b)"/>
     <path d="m164.2 467.81v3.125h3.6607v-3.125h-3.6607z" fill="url(#a)"/>
     <path d="m164.2 475.13v3.125h3.6607v-3.125h-3.6607z" fill="url(#a)"/>
    </g>
    <g transform="matrix(1.0679 0 0 1.1206 823.12 14.276)">
     <path d="m164.73 470.04v5.7143h2.5893v-5.7143h-2.5893z" fill="url(#b)"/>
     <path d="m164.2 467.81v3.125h3.6607v-3.125h-3.6607z" fill="url(#a)"/>
     <path d="m164.2 475.13v3.125h3.6607v-3.125h-3.6607z" fill="url(#a)"/>
    </g>
    <g transform="matrix(0 1.1206 -1.0679 0 1327.7 312.15)">
     <path d="m164.73 470.04v5.7143h2.5893v-5.7143h-2.5893z" fill="url(#b)"/>
     <path d="m164.2 467.81v3.125h3.6607v-3.125h-3.6607z" fill="url(#a)"/>
     <path d="m164.2 475.13v3.125h3.6607v-3.125h-3.6607z" fill="url(#a)"/>
    </g>
    <path d="m971.97 504.96h-6.1024v2.9016h6.1024v-2.9016z" fill="url(#di)"/>
    <path d="m974.35 504.36h-3.3372v4.1023h3.3372v-4.1023z" fill="url(#g)"/>
    <path d="m966.53 504.36h-3.3372v4.1023h3.3372v-4.1023z" fill="url(#g)"/>
    <g transform="matrix(0 1.1206 -1.0679 0 1454.1 320.75)">
     <path d="m164.73 470.04v5.7143h2.5893v-5.7143h-2.5893z" fill="url(#b)"/>
     <path d="m164.2 467.81v3.125h3.6607v-3.125h-3.6607z" fill="url(#a)"/>
     <path d="m164.2 475.13v3.125h3.6607v-3.125h-3.6607z" fill="url(#a)"/>
    </g>
    <g transform="matrix(0 1.1206 -1.0679 0 1438.5 311.95)">
     <path d="m164.73 470.04v5.7143h2.5893v-5.7143h-2.5893z" fill="url(#b)"/>
     <path d="m164.2 467.81v3.125h3.6607v-3.125h-3.6607z" fill="url(#a)"/>
     <path d="m164.2 475.13v3.125h3.6607v-3.125h-3.6607z" fill="url(#a)"/>
    </g>
    <g transform="matrix(0 1.1206 -1.0679 0 1422.9 311.95)">
     <path d="m164.73 470.04v5.7143h2.5893v-5.7143h-2.5893z" fill="url(#b)"/>
     <path d="m164.2 467.81v3.125h3.6607v-3.125h-3.6607z" fill="url(#a)"/>
     <path d="m164.2 475.13v3.125h3.6607v-3.125h-3.6607z" fill="url(#a)"/>
    </g>
    <g transform="matrix(0 1.1206 -1.0679 0 1399.3 321.15)">
     <path d="m164.73 470.04v5.7143h2.5893v-5.7143h-2.5893z" fill="url(#b)"/>
     <path d="m164.2 467.81v3.125h3.6607v-3.125h-3.6607z" fill="url(#a)"/>
     <path d="m164.2 475.13v3.125h3.6607v-3.125h-3.6607z" fill="url(#a)"/>
    </g>
    <g transform="matrix(0 1.1206 -1.0679 0 1379.3 320.75)">
     <path d="m164.73 470.04v5.7143h2.5893v-5.7143h-2.5893z" fill="url(#b)"/>
     <path d="m164.2 467.81v3.125h3.6607v-3.125h-3.6607z" fill="url(#a)"/>
     <path d="m164.2 475.13v3.125h3.6607v-3.125h-3.6607z" fill="url(#a)"/>
    </g>
    <g transform="matrix(0 1.1206 -1.0679 0 1346.5 320.75)">
     <path d="m164.73 470.04v5.7143h2.5893v-5.7143h-2.5893z" fill="url(#b)"/>
     <path d="m164.2 467.81v3.125h3.6607v-3.125h-3.6607z" fill="url(#a)"/>
     <path d="m164.2 475.13v3.125h3.6607v-3.125h-3.6607z" fill="url(#a)"/>
    </g>
    <path d="m804.23 690.42h1.753c0.8591 0 1.5507 0.72575 1.5507 1.6273v1.698c0 0.9015-0.69162 1.6273-1.5507 1.6273h-1.753c-0.8591 0-1.5507-0.72576-1.5507-1.6273v-1.698c0-0.90151 0.69163-1.6273 1.5507-1.6273zm14.504-0.20973h-2.5311v-2.5092h2.5311v2.5092zm4.1672 0h-2.6358v-2.5092h2.6358v2.5092zm0.0128 7.8812h-6.7238v-2.5363h6.7238v2.5363zm9.4786-2.5092h-2.5311v2.5092h2.5311v-2.5092zm4.1672 0h-2.6358v2.5092h2.6358v-2.5092zm0.0127-7.8812h-6.7238v2.5363h6.7238v-2.5363zm18.667 6.7161v4.8395h4.7976v-4.8395h-4.7976zm0-7.9677v5.0396h4.7976v-5.0396h-4.7976zm133.1-184.31h1.753c0.8591 0 1.5507 0.72576 1.5507 1.6273v1.698c0 0.9015-0.69162 1.6272-1.5507 1.6272h-1.753c-0.8591 0-1.5507-0.72575-1.5507-1.6272v-1.698c0-0.9015 0.69163-1.6273 1.5507-1.6273zm6.1241 6.66h1.753c0.8591 0 1.5507 0.72575 1.5507 1.6272v1.698c0 0.9015-0.69162 1.6272-1.5507 1.6272h-1.753c-0.8591 0-1.5507-0.72575-1.5507-1.6272v-1.698c0-0.9015 0.69163-1.6272 1.5507-1.6272zm-11.406 73.995h1.753c0.8591 0 1.5507 0.72576 1.5507 1.6273v1.698c0 0.9015-0.69162 1.6272-1.5507 1.6272h-1.753c-0.8591 0-1.5507-0.72575-1.5507-1.6272v-1.698c0-0.9015 0.69163-1.6273 1.5507-1.6273zm-15.833 95.522h1.753c0.8591 0 1.5507 0.72575 1.5507 1.6273v1.698c0 0.9015-0.69162 1.6273-1.5507 1.6273h-1.753c-0.8591 0-1.5507-0.72576-1.5507-1.6273v-1.698c0-0.90151 0.69163-1.6273 1.5507-1.6273zm-155.61-38.488h1.753c0.8591 0 1.5507 0.72575 1.5507 1.6272v1.698c0 0.9015-0.69161 1.6272-1.5507 1.6272h-1.753c-0.8591 0-1.5507-0.72575-1.5507-1.6272v-1.698c0-0.9015 0.69162-1.6272 1.5507-1.6272zm28.988-143.14h-2.4121v2.6331h2.4121v-2.6331zm3.9712 0h-2.5118v2.6331h2.5118v-2.6331zm28.829 0h-2.4121v2.6331h2.4121v-2.6331zm3.9712 0h-2.5118v2.6331h2.5118v-2.6331zm16.014 0h-2.4121v2.6331h2.4121v-2.6331zm3.9712 0h-2.5118v2.6331h2.5118v-2.6331zm-77.281 9.6156v2.6265h6.3742v-2.6265h-6.3742zm94.473-0.80732v2.6265h6.3742v-2.6265h-6.3742zm15.599 0v2.6265h6.3742v-2.6265h-6.3742zm-127.82 66.309v2.5311h2.5092v-2.5311h-2.5092zm0-4.1672v2.6358h2.5092v-2.6358h-2.5092zm8.9077 1.486v6.7238h2.5029v-6.7238h-2.5029zm121.92 126.88v2.6265h6.3742v-2.6265h-6.3742zm20.333-3e-3h-2.4121v2.6331h2.4121v-2.6331zm3.9712 0h-2.5118v2.6331h2.5118v-2.6331zm8.1142-199.3v2.6265h6.3742v-2.6265h-6.3742zm-17.425-0.0102h-2.4121v2.6331h2.4121v-2.6331zm3.9712 0h-2.5118v2.6331h2.5118v-2.6331zm47.026 19.901v6.6888h2.5363v-6.6888h-2.5363zm-9.5187 27.968v2.5311h2.5092v-2.5311h-2.5092zm0-4.1672v2.6358h2.5092v-2.6358h-2.5092zm8e-3 12.865v6.6888h2.5029v-6.6888h-2.5029zm9.5274 12.046v2.5311h2.5092v-2.5311h-2.5092zm0-4.1672v2.6358h2.5092v-2.6358h-2.5092zm-0.0163 17.3v6.7238h2.5363v-6.7238h-2.5363zm0.0163 20.066v2.5311h2.5092v-2.5311h-2.5092zm0-4.1672v2.6358h2.5092v-2.6358h-2.5092zm-9.5274 16.494v6.7238h2.5029v-6.7238h-2.5029zm-11.847 77.323v2.6265h6.3742v-2.6265h-6.3742zm21.375-19.531v2.5311h2.5092v-2.5311h-2.5092zm0-4.1672v2.6358h2.5092v-2.6358h-2.5092zm0-12.202v2.5311h2.5092v-2.5311h-2.5092zm0-4.1672v2.6358h2.5092v-2.6358h-2.5092zm-10.679 4.9133v4.8395h4.7976v-4.8395h-4.7976zm0-7.9677v5.0396h4.7976v-5.0396h-4.7976zm-187.3-17.018v4.8395h4.7976v-4.8395h-4.7976zm0-7.9677v5.0396h4.7976v-5.0396h-4.7976zm8.9046 3.7227v4.8395h4.7976v-4.8395h-4.7976zm0-7.9677v5.0396h4.7976v-5.0396h-4.7976zm0-8.7294v4.8395h4.7976v-4.8395h-4.7976zm0-7.9677v5.0396h4.7976v-5.0396h-4.7976zm0-9.2954v4.8395h4.7976v-4.8395h-4.7976zm0-7.9677v5.0396h4.7976v-5.0396h-4.7976zm0-40.708v4.8395h4.7976v-4.8395h-4.7976zm0-7.9677v5.0396h4.7976v-5.0396h-4.7976zm44.503-36.47v2.6265h6.3742v-2.6265h-6.3742zm1.6966 7.601h-4.6118v5.0344h4.6118v-5.0344zm7.593 0h-4.8026v5.0344h4.8026v-5.0344z" fill="#fffdcf"/>
   </g>
   <g transform="matrix(.86957 0 0 .86957 20.324 48.686)">
    <path d="m207.97 184.44-71.162 85.686c-2.555-2.3988-4.2077-5.9957-4.1931-10.914l1.583-125.47c-0.14064-5.617 1.4465-9.2019 3.9106-11.447l69.862 62.149z" fill="url(#dh)"/>
    <path d="m284.26 269.1c-3.09 3.141-7.6074 4.3699-12.22 4.2791l-125 0.4822c-3.764-2e-3 -7.5698-1.2894-10.263-3.7545l70.887-85.84 76.6 84.834z" fill="url(#dg)"/>
    <path d="m149.04 118.8 122.72-0.2391c5.1618 0.1565 10.083 1.4012 13.134 5.207l-77.498 63.043-69.35-64.462c2.8963-2.6591 7.0492-3.4877 10.998-3.5496z" fill="url(#df)"/>
    <path d="m284.75 123.6c2.0674 2.5254 3.3669 6.2687 3.2718 11.533l0.2246 121.87c0.16535 5.7863-1.5474 9.7899-4.287 12.389l-77.644-84.849 78.435-60.942z" fill="url(#de)"/>
   </g>
   <path transform="matrix(.92863 0 0 .97446 -27.675 -312.81)" d="m185.73 482.17 127.18-0.0131 3.5613 2.9321-0.75242 121.36-4.304 3.9867-126.7-0.2094-2.5766-2.982c0.42783-40.789 1.1713-83.036 1.5992-122.87l1.9988-2.1982z" fill="#303030" filter="url(#h)"/>
   <path d="m145.94 158.63c38.578 0.22667 78.377 0.45333 115.88 0.68l1.5259 1.3578-1.2821 117.02-1.4351 1.767-116.09 0.36459-1.0634-1.258 1.298-118.59 1.1681-1.3406z" fill="url(#dd)"/>
  </g>
  <g transform="translate(-336.73 326.58)">
   <path d="m471.87 87.819-2.6873 1.8129-72.883 225.81 3.3226 5.8231 248.23 57.678 3.7655-2.286 46.68-261.05-1.5582-2.2031-224.87-25.589" fill-opacity=".99216" filter="url(#dm)" opacity=".6"/>
   <path d="m465.49 77.98-2.6873 1.8129-72.883 225.81 3.3226 5.8231 248.23 57.678 3.7655-2.286 46.68-261.05-1.5582-2.2031-224.87-25.589" fill="url(#dr)"/>
   <path d="m510.89 121.23-3.4712-0.45434-1.0414 3.7648 3.4781 0.46334 1.0346-3.7738m5.7465 0.75217-3.6393-0.47634-1.0304 3.7793 3.6466 0.48577 1.0231-3.7887m19.362 2.5344-3.5755-0.46801-0.99092 3.8298 3.583 0.47731 0.98347-3.8391m5.9199 0.77484-3.749-0.49071-0.97899 3.8447 3.7569 0.50048 0.97115-3.8545m9.6748 1.5839-3.6421-0.47739-0.95874 3.872 3.6498 0.4869 0.95101-3.8816m6.0303 0.79039-3.819-0.50056-0.94633 3.8873 3.8271 0.51056 0.93822-3.8973m14.48-5.4514-3.7076-0.47031-0.90947 3.8828 3.7155 0.47988 0.90156-3.8923m6.1387 0.77874-3.8878-0.49318-0.89667 3.8981 3.8964 0.50324 0.88808-3.9082m6.5198 0.82708-3.7615-0.47718-0.88206 3.9153 3.7698 0.4869 0.87375-3.925m6.2284 0.79012-3.9446-0.50041-0.8687 3.9309 3.9534 0.51061 0.85991-3.9411m5.1345 7.7762-3.8317-0.50153-0.86183 3.9863 3.8404 0.51161 0.85313-3.9963m6.3452 0.83052-4.0186-0.526-0.84797 4.0024 4.0278 0.53656 0.83881-4.013m30.444 39.525-0.75831 4.1407 4.2971 0.65729 0.74827-4.1524-4.287-0.64562m1.2394-6.7676-0.78257 4.2734 4.2809 0.63862 0.77215-4.2853-4.2705-0.62668m-18.582 52.501-0.82784 4.3811 4.3694 0.78741 0.81742-4.394-4.359-0.77448m1.3528-7.1593-0.85418 4.5205 4.3527 0.76672 0.84349-4.5337-4.342-0.75348m4.7118 23.007-0.8221 4.4891 4.4467 0.83825 0.81141-4.5026-4.436-0.82473m1.3433-7.3349-0.84816 4.6313 4.4295 0.81661 0.83699-4.6451-4.4183-0.80276m-19.806 57.103-0.89991 4.7626 4.5246 0.98957 0.88875-4.7776-4.5134-0.97452m1.4701-7.7801-0.92819 4.9121 4.5068 0.9655 0.91672-4.9275-4.4953-0.9501m13.326-21.966-0.84338 4.6054 4.4949 0.89974 0.83241-4.6196-4.484-0.88555m1.3781-7.5242-0.87013 4.7507 4.4774 0.87706 0.85867-4.7652-4.4659-0.86255m-10.223 5.7773-0.86497 4.5775 4.4504 0.89082 0.85419-4.5915-4.4396-0.87681m1.4132-7.4789-0.89228 4.7221 4.4331 0.86842 0.8812-4.7365-4.4221-0.85406m9.2288-48.841-0.80415 4.2557 4.3164 0.72216 0.79402-4.268-4.3062-0.70991m1.3143-6.955-0.82982 4.3916 4.3 0.70255 0.81942-4.4042-4.2896-0.68999m-147-44.332-1.0887 3.6933 3.5598 0.53614 1.082-3.7026-3.5531-0.52681m1.7806-6.0404-1.1245 3.8148 3.5491 0.52122 1.1176-3.8244-3.5422-0.51164m1.0817 19.671-1.0952 3.7748 3.611 0.57303 1.0884-3.7845-3.6043-0.5633m1.791-6.1732-1.1311 3.8985 3.6002 0.55747 1.124-3.9085-3.5931-0.54749m-8.3683 5.1452-1.1075 3.757 3.5823 0.56845 1.1007-3.7667-3.5755-0.55881m1.8112-6.1444-1.1438 3.8804 3.5715 0.55303 1.1369-3.8902-3.5646-0.54315m13.818-24.028-1.0495 3.6173 3.5541 0.49356 1.043-3.6263-3.5476-0.48457m1.7166-5.9165-1.0841 3.7366 3.5436 0.47919 1.0772-3.7458-3.5367-0.46998m-9.5423 9.6152-1.0682 3.6237 3.5347 0.50114 1.0617-3.6327-3.5282-0.49214m1.7472-5.9271-1.1034 3.7432 3.5242 0.48673 1.0966-3.7525-3.5175-0.47749m2.372-8.0471-1.0477 3.5544 3.5094 0.46646 1.0412-3.563-3.5029-0.45778m1.7138-5.814-1.0823 3.6719 3.499 0.45256 1.0757-3.6808-3.4924-0.44366m14.566 1.7074-3.4019-0.43187-1.0597 3.6958 3.4085 0.44055 1.0531-3.7044m5.6314 0.71488-3.5662-0.45273-1.0491 3.7097 3.5733 0.46184 1.042-3.7188m108.66 20.495-3.9036-0.51023-0.82372 4.0282 3.9127 0.52051 0.81464-4.0384m6.4646 0.84495-4.0943-0.53514-0.8092 4.0447 4.1038 0.54593 0.79975-4.0554m-69.033 156.29-4.1185-0.93403-1.0907 4.8794 4.1283 0.94861 1.0809-4.894m6.8241 1.5476-4.3226-0.9803-1.0748 4.9028 4.3329 0.99562 1.0644-4.9181m9.3738 2.1259-4.1963-0.95169-1.0518 4.9365 4.2066 0.96659 1.0415-4.9514m6.9534 1.577-4.4045-0.9989-1.0352 4.9605 4.4154 1.0146 1.0244-4.9762m16.419 10.842-4.3312-0.99979-0.99894 5.0663 4.3421 1.0154 0.98806-5.0819m7.1777 1.6569-4.5467-1.0496-0.98128 5.0914 4.5584 1.066 0.96954-5.1079m8.0339 1.8545-4.4063-1.0171-0.96017 5.121 4.4178 1.0331 0.94872-5.137m7.3026 1.6857-4.6259-1.0678-0.94166 5.1467 4.638 1.0846 0.92962-5.1635m14.622-154.66-0.76403 4.0438 4.2242 0.61339 0.7543-4.0549-4.2145-0.60224m1.249-6.6099-0.78867 4.1739 4.2086 0.59553 0.77864-4.1853-4.1985-0.58411m-99.367 141.61-1.0926 4.6717 4.228 0.98728 1.0831-4.6862-4.2185-0.97281m1.7852-7.6331-1.1272 4.8195 4.2127 0.96416 1.1174-4.8343-4.2029-0.94936m-13.744 4.8754-1.1193 4.6308 4.1685 0.97338 1.11-4.645-4.1593-0.95915m1.8288-7.5667-1.1547 4.7776 4.1537 0.95065 1.1451-4.7922-4.1442-0.93608m-19.131 3.5767-1.1568 4.5718 4.083 0.95342 1.1481-4.5857-4.0743-0.93957m1.8905-7.4709-1.1937 4.7173 4.069 0.93124 1.1846-4.7315-4.06-0.91705m108.06 21.433-0.89333 4.8776 4.6045 1.0455 0.88178-4.8933-4.593-1.0298m1.4591-7.9671-0.92121 5.0301 4.586 1.0204 0.90928-5.0462-4.5741-1.0043m-134.5-208.38-10.361-1.155-3.4316 10.98 10.42 1.2341 3.3721-11.059" fill="#c6c48e"/>
   <path d="m440.23 270.1 1.3797 0.30416c0.67716 0.14924 1.0337 0.92423 0.7987 1.7382l-0.44329 1.5353c-0.23562 0.81625-0.97206 1.3519-1.6504 1.2003l-1.3823-0.30878c-0.67676-0.15115-1.0301-0.92855-0.79316-1.7425l0.44562-1.5309c0.23629-0.81167 0.96964-1.3448 1.6452-1.1959m11.542 2.342-2.0163-0.44421 0.64576-2.2708 2.0144 0.44081-0.6438 2.2742m3.3305 0.73376-2.1082-0.46445 0.64274-2.2763 2.1062 0.46089-0.64072 2.2799m-2.0131 7.2034-5.3834-1.2112 0.65825-2.3148 5.3782 1.2019-0.65311 2.3242m8.2886-0.59124-2.0478-0.45768-0.6407 2.309 2.0498 0.46119 0.63877-2.3125m3.3828 0.75604-2.1412-0.47856-0.6376 2.3146 2.1433 0.48224 0.63548-2.3183m1.9952-7.2382-5.4344-1.1892-0.64227 2.3141 5.4399 1.1985 0.63684-2.3234m13.629 9.5794-1.1963 4.5221 3.9911 0.90077 1.1886-4.5354-3.9833-0.8875m1.9558-7.3932-1.2351 4.6687 3.9787 0.87954 1.227-4.6823-3.9706-0.86596m149.79-141.45 1.5268 0.18611c0.74915 0.0913 1.2395 0.76024 1.0987 1.5004l-0.26554 1.396c-0.14111 0.7422-0.85984 1.2651-1.6106 1.1718l-1.5302-0.19002c-0.74887-0.093-1.2363-0.76424-1.0934-1.5044l0.26876-1.3923c0.14245-0.73818 0.85827-1.2587 1.6055-1.1676m4.31 6.1406 1.5404 0.19253c0.75585 0.0945 1.2524 0.77218 1.1129 1.5201l-0.26342 1.4107c-0.13995 0.75001-0.86303 1.2766-1.6206 1.1802l-1.5438-0.19655c-0.75564-0.0961-1.2493-0.77625-1.1076-1.5242l0.26663-1.4069c0.14129-0.74592 0.86157-1.2701 1.6156-1.1759m-22.309 62.045 1.5746 0.25379c0.77281 0.12453 1.2702 0.87239 1.1146 1.6774l-0.29347 1.5185c-0.15604 0.80735-0.90568 1.3558-1.6801 1.229l-1.5782-0.25837c-0.77251-0.12645-1.2667-0.87684-1.1089-1.6819l0.29686-1.5141c0.15738-0.80274 0.90382-1.3485 1.6746-1.2243m-32.238 86.594 1.6186 0.34528c0.79422 0.16944 1.2897 1.02 1.1102 1.9079l-0.33871 1.6748c-0.18007 0.89053-0.96665 1.4694-1.7628 1.2973l-1.6223-0.35075c-0.79394-0.17167-1.2859-1.0251-1.1039-1.9128l0.34222-1.6696c0.18152-0.8851 0.9646-1.461 1.7567-1.2921m-123.07-61.969 1.3638 0.26117c0.6692 0.12815 1.0307 0.85472 0.80982 1.6296l-0.41664 1.4616c-0.22146 0.77703-0.93998 1.2982-1.6104 1.168l-1.3663-0.2654c-0.66881-0.1299-1.0273-0.85876-0.8045-1.6336l0.41887-1.4575c0.22213-0.77278 0.93785-1.2916 1.6053-1.1637m54.387-111.56-1.8241-0.21776-0.54186 1.9828 1.826 0.2202 0.54001-1.9852m3.012 0.35957-1.9062-0.22758-0.53904 1.9867 1.9082 0.23011 0.53712-1.9892m22.191 2.6491-1.879-0.2243-0.51685 2.0163 1.8808 0.22682 0.515-2.0188m3.1025 0.37036-1.9636-0.23441-0.51385 2.0203 1.9656 0.23703 0.51182-2.023m12.626 1.5072-1.9135-0.22841-0.50085 2.0372 1.9155 0.231 0.49882-2.0398m3.1596 0.37721-1.9998-0.23875-0.49756 2.0414 2.0019 0.24141 0.49552-2.044m-61.522 0.0979-0.55871 1.9783 4.773 0.59685 0.55416-1.9847-4.7684-0.59045m73.72 8.4724-0.48409 2.0759 5.2014 0.64846 0.47866-2.083-5.1959-0.64142m12.771 1.5765-0.47044 2.0932 5.2779 0.658 0.46471-2.1004-5.2722-0.65083m-114.32 38.763-0.58701 2.0156 1.8899 0.29647 0.58547-2.0183-1.8884-0.29378m0.96343-3.3074-0.60892 2.0903 1.8874 0.29215 0.60706-2.0931-1.8855-0.28938m6.3736 2.2137-1.5423 5.3766 1.9019 0.29977 1.5376-5.3838-1.8971-0.29259m71.905 131.02-0.57511 2.5778 5.7458 1.2946 0.56831-2.5883-5.739-1.2841m18.442 4.1233-2.2083-0.4941-0.55726 2.6142 2.2109 0.49816 0.55466-2.6182m3.6478 0.81618-2.309-0.51663-0.553 2.6207 2.3118 0.52089 0.55019-2.625m44.153-177.07-0.4335 2.1142 5.4374 0.65571 0.4273-2.1215-5.4312-0.64838m-14.68-1.7608-2.0133-0.24034-0.45328 2.097 2.0156 0.24306 0.45095-2.0997m3.3247 0.39691-2.1043-0.25122-0.44959 2.1013 2.1066 0.25404 0.44726-2.1041m37.278 21.281-1.0433 5.613 2.2543 0.29713 1.0366-5.621-2.2477-0.28913m-12.904 22.535-0.41568 2.1723 2.2334 0.32 0.41314-2.1754-2.2309-0.31688m0.68199-3.5636-0.43098 2.2521 2.2292 0.315 0.42837-2.2553-2.2266-0.3118m-2.1063 11.054-1.1114 5.808 2.2408 0.33529 1.1046-5.8164-2.234-0.32687m6.5725 11.798-0.41528 2.2342 2.2759 0.34953 0.41266-2.2375-2.2733-0.34623m0.68113-3.665-0.43049 2.3161 2.2717 0.34426 0.42779-2.3195-2.269-0.34085m-2.8629 15.323-1.1219 6.0356 2.319 0.37655 1.1146-6.0448-2.3117-0.36743m-3.3583 18.149-0.43078 2.318 2.3111 0.39434 0.42807-2.3215-2.3084-0.39081m0.70672-3.8021-0.44659 2.4028 2.3068 0.38869 0.44378-2.4064-2.304-0.38504m-11.578 13.613-1.1906 6.2218 2.3007 0.4127 1.1834-6.2313-2.2935-0.40318m-25.43 72.06-0.52091 2.6291 6.0006 1.324 0.51345-2.64-5.9932-1.3131m23.897-15.132-0.46675 2.5111 2.3891 0.49976 0.46384-2.5152-2.3862-0.49566m0.76544-4.1182-0.4837 2.6024 2.3844 0.4932 0.4807-2.6066-2.3814-0.48898m2.22-11.945-0.45802 2.4639 2.3705 0.47373 0.45512-2.4678-2.3676-0.4698m0.751-4.041-0.4746 2.5536 2.3659 0.46741 0.47159-2.5577-2.3629-0.46334m-10.896 2.7759-0.90045 4.6894 4.4936 0.90579 0.89028-4.7036-4.4834-0.8915m1.4716-7.6642-0.92922 4.8394 4.4772 0.88292 0.91866-4.8541-4.4666-0.86826m-154.29-45.261-1.1916 4.0829 3.6916 0.69279 1.185-4.0938-3.685-0.68185m1.9489-6.6778-1.2308 4.2174 3.6811 0.67527 1.224-4.2286-3.6744-0.66404m5.9336 4.3635-1.1741 4.0852 3.7169 0.68895 1.1675-4.0962-3.7103-0.67798m1.9205-6.6816-1.2128 4.2198 3.7062 0.67139 1.2059-4.231-3.6994-0.66014m2.0861-7.2578-1.1543 4.0156 3.6941 0.65152 1.1476-4.0262-3.6874-0.6409m1.8878-6.5681-1.1923 4.1481 3.6835 0.6345 1.1855-4.159-3.6767-0.6236m2.1831-7.5954-1.134 3.9454 3.6707 0.61405 1.1275-3.9557-3.6642-0.60379m1.855-6.4537-1.1715 4.0759 3.6602 0.59759 1.1647-4.0865-3.6534-0.58702m9.2488-32.178-1.0799 3.7572 3.606 0.51472 1.0736-3.7666-3.5997-0.50534m1.7668-6.1469-1.1159 3.8823 3.596 0.49968 1.1093-3.8919-3.5894-0.49006m41.361-23.536-0.52829 1.9944 4.9059 0.5916 0.52344-2.0009-4.901-0.58509m-0.22707 5.9464-3.5439-0.43551-1.0258 3.8506 3.5507 0.44466 1.019-3.8598m5.8672 0.72102-3.7157-0.45663-1.0148 3.8653 3.7228 0.46621 1.0077-3.8749" fill="#fffdcf"/>
   <path d="m544.42 205.85-43.469-66.401c2.2251-1.5366 5.1052-2.3405 8.5832-1.8742l97.242 14.703c4.623 0.50113 7.3524 2.0928 8.8649 4.2148l-71.222 49.357" fill="url(#dc)"/>
   <path d="m466.81 253.6c-1.5859-3.21-1.3279-7.2889-0.0472-11.195l29.37-96.211c0.81241-2.6217 2.5313-5.1362 4.8349-6.7635l53.727 63.71-87.885 50.461" fill="url(#db)"/>
   <path d="m617.01 164.31-20.943 105.93c-1.0417 4.932-3.0573 9.4478-7.1179 11.629l-42.928-80.479 69.572-44.96c1.807 2.5138 1.9193 4.8072 1.4169 7.8766" fill="url(#da)"/>
   <path d="m589.13 281.77c-2.7032 1.4894-6.3828 1.9722-11.176 0.77767l-102.83-23.336c-4.5468-0.88698-7.1902-3.0925-8.4638-5.9273l80.961-57.563 41.506 86.049" fill="url(#cz)"/>
   <path transform="matrix(1.6096 .02156 .46512 1.3561 -83.857 -140.74)" d="m368.36 216.96-38.637 83.493-2.8243 2.1755-62.622-16.697-0.34211-3.3663 42.38-77.274 2.1564-1.2165 59.313 11.492 0.57641 1.3931h-1e-5" fill="#303030" filter="url(#h)"/>
   <path d="m607.61 161.28c-6.2462 34.375-15.262 70.09-22.505 109.92l-1.6615 1.416-108.69-23.941-1.0879-1.7577 32.185-103.08 1.236-0.70563 99.502 16.991 1.0173 1.1551" fill="url(#cy)"/>
   <path d="m609.5 312.98-6.0453-1.3982-0.56767 3.0485 6.056 1.4131 0.55699-3.0634" fill="url(#cx)"/>
   <path d="m611.73 312.96-3.3207-0.76665-0.78984 4.3277 3.329 0.7782 0.7815-4.3392" fill="url(#cw)"/>
   <path d="m604.46 311.17-3.3207-0.76665-0.78984 4.3277 3.329 0.7782 0.7815-4.3392" fill="url(#cv)"/>
   <path d="m594.26 309.53-6.0453-1.3982-0.56767 3.0485 6.056 1.4131 0.55699-3.0634" fill="url(#cu)"/>
   <path d="m596.48 309.51-3.3207-0.76665-0.78984 4.3277 3.329 0.7782 0.7815-4.3392" fill="url(#ct)"/>
   <path d="m589.21 307.72-3.3207-0.76665-0.78984 4.3277 3.329 0.7782 0.7815-4.3392" fill="url(#cs)"/>
   <path d="m570.51 297.02-5.7167-1.3266-0.53681 2.8922 5.7268 1.3406 0.52671-2.9063" fill="url(#cr)"/>
   <path d="m572.61 297.01-3.1402-0.72734-0.7469 4.1058 3.148 0.7383 0.73901-4.1168" fill="url(#cq)"/>
   <path d="m565.74 295.31-3.1401-0.72734-0.7469 4.1058 3.148 0.7383 0.73901-4.1168" fill="url(#cp)"/>
   <path d="m554.42 293.31-5.7167-1.3266-0.53681 2.8922 5.7268 1.3406 0.52671-2.9063" fill="url(#co)"/>
   <path d="m556.53 293.29-3.1402-0.72734-0.7469 4.1058 3.148 0.7383 0.73901-4.1168" fill="url(#cn)"/>
   <path d="m549.65 291.6-3.1401-0.72734-0.7469 4.1058 3.148 0.7383 0.73901-4.1168" fill="url(#cm)"/>
   <path d="m610.01 302.42 1.2141-6.5577 2.8975 0.58893-1.2055 6.574-2.9062-0.60521" fill="url(#cl)"/>
   <path d="m609.1 304.63 0.66815-3.6016 4.1068 0.85202-0.6614 3.6143-4.1135-0.86471" fill="url(#ck)"/>
   <path d="m610.46 296.7 0.66815-3.6016 4.1068 0.85202-0.66141 3.6143-4.1135-0.86472" fill="url(#cj)"/>
   <path d="m603.61 286 1.2141-6.5577 2.8975 0.58893-1.2055 6.574-2.9062-0.60521" fill="url(#ci)"/>
   <path d="m602.7 288.21 0.66815-3.6016 4.1068 0.85202-0.6614 3.6143-4.1135-0.86471" fill="url(#ch)"/>
   <path d="m604.06 280.28 0.66815-3.6016 4.1068 0.85202-0.66141 3.6143-4.1135-0.86472" fill="url(#cg)"/>
   <path d="m609.7 254.6 1.0918-6.2303 2.6055 0.55953-1.084 6.2458-2.6133-0.57499" fill="url(#cf)"/>
   <path d="m608.88 256.7 0.60082-3.4218 3.693 0.80948-0.59476 3.4338-3.699-0.82155" fill="url(#ce)"/>
   <path d="m610.11 249.16 0.60083-3.4218 3.693 0.80949-0.59476 3.4338-3.699-0.82155" fill="url(#cd)"/>
   <path d="m622.2 236.22 1.0918-6.2303 2.6055 0.55954-1.084 6.2458-2.6133-0.575" fill="url(#cc)"/>
   <path d="m621.38 238.32 0.60082-3.4218 3.693 0.80948-0.59476 3.4338-3.699-0.82154" fill="url(#cb)"/>
   <path d="m622.61 230.79 0.60083-3.4218 3.693 0.80948-0.59476 3.4338-3.699-0.82154" fill="url(#ca)"/>
   <path d="m618.45 256.35 1.0918-6.2303 2.6055 0.55953-1.084 6.2458-2.6133-0.57499" fill="url(#bz)"/>
   <path d="m617.63 258.45 0.60082-3.4218 3.693 0.80948-0.59476 3.4338-3.699-0.82155" fill="url(#by)"/>
   <path d="m618.86 250.91 0.60083-3.4218 3.693 0.80949-0.59476 3.4338-3.699-0.82155" fill="url(#bx)"/>
   <path d="m616.28 220.4 1.0724-5.9125 2.363 0.50333-1.0655 5.9271-2.3699-0.5179" fill="url(#bw)"/>
   <path d="m615.5 222.39 0.59005-3.2472 3.349 0.72896-0.58468 3.2586-3.3544-0.74032" fill="url(#bv)"/>
   <path d="m616.72 215.25 0.59005-3.2472 3.349 0.72896-0.58468 3.2586-3.3544-0.74032" fill="url(#bu)"/>
   <path d="m620.41 198.2 1.09-5.9018 2.3913 0.44826-1.083 5.9161-2.3983-0.46259" fill="url(#bt)"/>
   <path d="m619.63 200.2 0.59976-3.2414 3.3891 0.65083-0.59434 3.2526-3.3945-0.66201" fill="url(#bs)"/>
   <path d="m620.86 193.07 0.59976-3.2414 3.3891 0.65082-0.59434 3.2526-3.3945-0.662" fill="url(#br)"/>
   <path d="m633.41 174.58 1.09-5.9018 2.3913 0.44826-1.083 5.9161-2.3983-0.46259" fill="url(#bq)"/>
   <path d="m632.63 176.58 0.59976-3.2414 3.3891 0.65083-0.59434 3.2526-3.3945-0.66201" fill="url(#bp)"/>
   <path d="m633.86 169.45 0.59976-3.2414 3.3891 0.65082-0.59434 3.2526-3.3945-0.662" fill="url(#bo)"/>
   <path d="m627.53 159.68 1.09-5.6678 2.3913 0.4305-1.083 5.6816-2.3983-0.44426" fill="url(#bn)"/>
   <path d="m626.75 161.61 0.59976-3.1129 3.3891 0.62503-0.59434 3.1236-3.3945-0.63576" fill="url(#bm)"/>
   <path d="m627.98 154.76 0.59976-3.1129 3.3891 0.62503-0.59434 3.1236-3.3945-0.63576" fill="url(#bl)"/>
   <path d="m529.31 295.07 1.4791-6.393 2.4817 0.58884-1.4726 6.4089-2.4882-0.60476" fill="url(#bk)"/>
   <path d="m528.25 297.15 0.81347-3.5111 3.5164 0.85147-0.80842 3.5235-3.5214-0.86389" fill="url(#bj)"/>
   <path d="m530.07 289.49 0.81347-3.5111 3.5164 0.85147-0.80843 3.5235-3.5214-0.86389" fill="url(#bi)"/>
   <path d="m517.37 292.25 1.4791-6.393 2.4817 0.58884-1.4726 6.4089-2.4882-0.60476" fill="url(#bh)"/>
   <path d="m516.31 294.34 0.81347-3.5111 3.5164 0.85147-0.80842 3.5235-3.5214-0.86389" fill="url(#bg)"/>
   <path d="m518.13 286.68 0.81347-3.5111 3.5164 0.85147-0.80843 3.5235-3.5214-0.86389" fill="url(#bf)"/>
   <path d="m499.92 288.3 1.5611-6.2484 2.419 0.62202-1.555 6.2642-2.4251-0.63776" fill="url(#be)"/>
   <path d="m498.85 290.33 0.8585-3.4317 3.4272 0.89816-0.85378 3.444-3.4319-0.91044" fill="url(#bd)"/>
   <path d="m500.77 282.84 0.8585-3.4317 3.4272 0.89816-0.85378 3.444-3.4319-0.91044" fill="url(#bc)"/>
   <path d="m477.28 160.2 1.514-5.4438 1.8058 0.37739-1.5102 5.4568-1.8096-0.39047" fill="url(#bb)"/>
   <path d="m476.36 162 0.83236-2.9898 2.5575 0.54914-0.82941 3-2.5605-0.55934" fill="url(#ba)"/>
   <path d="m478.14 155.79 0.83236-2.9898 2.5575 0.54914-0.82941 3-2.5605-0.55933" fill="url(#az)"/>
   <path d="m470.9 159.07 1.514-5.4438 1.8058 0.37739-1.5102 5.4568-1.8096-0.39047" fill="url(#ay)"/>
   <path d="m469.98 160.88 0.83236-2.9898 2.5575 0.54914-0.82941 3-2.5605-0.55934" fill="url(#ax)"/>
   <path d="m471.77 154.66 0.83236-2.9898 2.5575 0.54914-0.82941 3-2.5605-0.55933" fill="url(#aw)"/>
   <path d="m474.53 146.51 1.514-5.4438 1.8058 0.37739-1.5102 5.4568-1.8096-0.39047" fill="url(#av)"/>
   <path d="m473.61 148.31 0.83236-2.9898 2.5575 0.54914-0.82941 3-2.5605-0.55934" fill="url(#au)"/>
   <path d="m475.39 142.1 0.83236-2.9898 2.5575 0.54914-0.82941 3-2.5605-0.55933" fill="url(#at)"/>
   <path d="m478.59 132.54 1.514-5.2347 1.8058 0.3629-1.5102 5.2473-1.8096-0.37547" fill="url(#as)"/>
   <path d="m477.67 134.27 0.83236-2.875 2.5575 0.52805-0.82941 2.8848-2.5605-0.53785" fill="url(#ar)"/>
   <path d="m479.46 128.3 0.83236-2.875 2.5575 0.52805-0.82941 2.8848-2.5605-0.53785" fill="url(#aq)"/>
   <path d="m486.4 128.91 1.514-5.2347 1.8058 0.3629-1.5102 5.2473-1.8096-0.37547" fill="url(#ap)"/>
   <path d="m485.48 130.65 0.83236-2.875 2.5575 0.52805-0.82941 2.8848-2.5605-0.53785" fill="url(#ao)"/>
   <path d="m487.27 124.67 0.83236-2.875 2.5575 0.52805-0.82941 2.8848-2.5605-0.53785" fill="url(#an)"/>
   <path d="m482.59 118.6 1.514-5.0953 1.8058 0.35324-1.5102 5.1076-1.8096-0.36548" fill="url(#am)"/>
   <path d="m481.67 120.29 0.83236-2.7985 2.5575 0.51399-0.82941 2.808-2.5605-0.52353" fill="url(#al)"/>
   <path d="m483.46 114.47 0.83236-2.7985 2.5575 0.51399-0.82941 2.808-2.5605-0.52353" fill="url(#ak)"/>
   <path d="m616.84 135.53-5.3961-0.6405-0.55896 2.279 5.4054 0.65073 0.54963-2.2893" fill="url(#aj)"/>
   <path d="m618.77 135.26-2.9813-0.35079-0.62001 3.2343 2.989 0.35876 0.61232-3.2422" fill="url(#ai)"/>
   <path d="m612.31 134.53-2.9727-0.3508-0.69957 3.2343 2.9802 0.35876 0.69209-3.2422" fill="url(#ah)"/>
   <path d="m599.94 133.85-5.2077-0.6405-0.53944 2.279 5.2167 0.65073 0.53043-2.2893" fill="url(#ag)"/>
   <path d="m601.79 133.58-2.8772-0.35079-0.59836 3.2343 2.8847 0.35876 0.59094-3.2422" fill="url(#af)"/>
   <path d="m595.57 132.85-2.8689-0.3508-0.67514 3.2343 2.8761 0.35876 0.66792-3.2422" fill="url(#ae)"/>
   <path d="m588.19 125.2-4.9251-0.54899-0.51017 1.9534 4.9336 0.55776 0.50165-1.9622" fill="url(#ad)"/>
   <path d="m589.95 124.96-2.7211-0.30067-0.56589 2.7722 2.7281 0.3075 0.55888-2.779" fill="url(#ac)"/>
   <path d="m584.06 124.34-2.7132-0.30068-0.6385 2.7722 2.7201 0.3075 0.63167-2.779" fill="url(#ab)"/>
   <path d="m575.73 123.73-4.9251-0.54899-0.51017 1.9534 4.9336 0.55776 0.50165-1.9622" fill="url(#aa)"/>
   <path d="m577.49 123.5-2.7211-0.30067-0.56589 2.7722 2.7281 0.3075 0.55888-2.779" fill="url(#z)"/>
   <path d="m571.6 122.87-2.7132-0.30068-0.6385 2.7722 2.7201 0.3075 0.63167-2.779" fill="url(#y)"/>
   <path d="m554.96 128.28-4.9251-0.57304-0.51017 2.039 4.9336 0.58219 0.50165-2.0481" fill="url(#x)"/>
   <path d="m556.72 128.03-2.7211-0.31384-0.56589 2.8936 2.7281 0.32097 0.55888-2.9007" fill="url(#w)"/>
   <path d="m550.83 127.38-2.7132-0.31384-0.6385 2.8936 2.7201 0.32097 0.63167-2.9007" fill="url(#v)"/>
   <path d="m539.4 125.92-4.6896-0.55452-0.48578 1.9731 4.6977 0.56338 0.47767-1.9819" fill="url(#u)"/>
   <path d="m541.07 125.68-2.591-0.3037-0.53882 2.8001 2.5977 0.31059 0.53216-2.807" fill="url(#t)"/>
   <path d="m535.46 125.05-2.5835-0.3037-0.60798 2.8001 2.59 0.3106 0.60147-2.807" fill="url(#s)"/>
   <path d="m514.28 122.59-4.7131-0.5197-0.42435 1.9693 4.7215 0.52847 0.41596-1.978" fill="url(#r)"/>
   <path d="m515.95 122.34-2.6039-0.28447-0.45147 2.7936 2.6108 0.29129 0.44456-2.8004" fill="url(#q)"/>
   <path d="m510.31 121.75-2.5964-0.28453-0.5207 2.7941 2.6031 0.29135 0.51397-2.8009" fill="url(#p)"/>
   <path d="m501.87 114.55-4.6911-0.67757-0.49505 1.8851 4.6991 0.68635 0.48698-1.8939" fill="url(#o)"/>
   <path d="m503.54 114.38-2.5918-0.37178-0.55187 2.6799 2.5985 0.37863 0.54522-2.6867" fill="url(#n)"/>
   <path d="m497.93 113.6-2.5843-0.37156-0.62107 2.6778 2.5908 0.37839 0.61459-2.6846" fill="url(#m)"/>
   <path d="m393.25 311.43 248.23 57.678 3.7655-2.286 46.68-261.05" fill="none" filter="url(#dl)" stroke="#000" stroke-width="1.5"/>
  </g>
 </g>
</svg>
