<svg id="Layer_1" data-name="Layer 1" xmlns="http://www.w3.org/2000/svg" xmlns:xlink="http://www.w3.org/1999/xlink" viewBox="0 0 343.55 344.71"><defs><style>.cls-1{opacity:0.6;isolation:isolate;}.cls-2{fill:url(#linear-gradient);}.cls-3{fill:#c6c48e;}.cls-4{fill:url(#linear-gradient-2);}.cls-5{fill:url(#linear-gradient-3);}.cls-6{fill:url(#linear-gradient-4);}.cls-7{fill:url(#linear-gradient-5);}.cls-8{fill:url(#linear-gradient-6);}.cls-9{fill:url(#linear-gradient-7);}.cls-10{fill:url(#linear-gradient-8);}.cls-11{fill:url(#linear-gradient-9);}.cls-12{fill:url(#linear-gradient-10);}.cls-13{fill:url(#linear-gradient-11);}.cls-14{fill:url(#linear-gradient-12);}.cls-15{fill:url(#linear-gradient-13);}.cls-16{fill:url(#linear-gradient-14);}.cls-17{fill:url(#linear-gradient-15);}.cls-18{fill:url(#linear-gradient-16);}.cls-19{fill:url(#linear-gradient-17);}.cls-20{fill:url(#linear-gradient-18);}.cls-21{fill:url(#linear-gradient-19);}.cls-22{fill:url(#linear-gradient-20);}.cls-23{fill:url(#linear-gradient-21);}.cls-24{fill:url(#linear-gradient-22);}.cls-25{fill:url(#linear-gradient-23);}.cls-26{fill:url(#linear-gradient-24);}.cls-27{fill:url(#linear-gradient-25);}.cls-28{fill:url(#linear-gradient-26);}.cls-29{fill:url(#linear-gradient-27);}.cls-30{fill:url(#linear-gradient-28);}.cls-31{fill:url(#linear-gradient-29);}.cls-32{fill:url(#linear-gradient-30);}.cls-33{fill:url(#linear-gradient-31);}.cls-34{fill:url(#linear-gradient-32);}.cls-35{fill:url(#linear-gradient-33);}.cls-36{fill:url(#linear-gradient-34);}.cls-37{fill:url(#linear-gradient-35);}.cls-38{fill:url(#linear-gradient-36);}.cls-39{fill:url(#linear-gradient-37);}.cls-40{fill:url(#linear-gradient-38);}.cls-41{fill:url(#linear-gradient-39);}.cls-42{fill:url(#linear-gradient-40);}.cls-43{fill:url(#linear-gradient-41);}.cls-44{fill:url(#linear-gradient-42);}.cls-45{fill:url(#linear-gradient-43);}.cls-46{fill:url(#linear-gradient-44);}.cls-47{fill:url(#linear-gradient-45);}.cls-48{fill:url(#linear-gradient-46);}.cls-49{fill:url(#linear-gradient-47);}.cls-50{fill:url(#linear-gradient-48);}.cls-51{fill:url(#linear-gradient-49);}.cls-52{fill:url(#linear-gradient-50);}.cls-53{fill:url(#linear-gradient-51);}.cls-54{fill:url(#linear-gradient-52);}.cls-55{fill:url(#linear-gradient-53);}.cls-56{fill:url(#linear-gradient-54);}.cls-57{fill:url(#linear-gradient-55);}.cls-58{fill:url(#linear-gradient-56);}.cls-59{fill:url(#linear-gradient-57);}.cls-60{fill:url(#linear-gradient-58);}.cls-61{fill:url(#linear-gradient-59);}.cls-62{fill:url(#linear-gradient-60);}.cls-63{fill:url(#linear-gradient-61);}.cls-64{fill:url(#linear-gradient-62);}.cls-65{fill:url(#linear-gradient-63);}.cls-66{fill:url(#linear-gradient-64);}.cls-67{fill:url(#linear-gradient-65);}.cls-68{fill:url(#linear-gradient-66);}.cls-69{fill:url(#linear-gradient-67);}.cls-70{fill:url(#linear-gradient-68);}.cls-71{fill:url(#linear-gradient-69);}.cls-72{fill:url(#linear-gradient-70);}.cls-73{fill:url(#linear-gradient-71);}.cls-74{fill:url(#linear-gradient-72);}.cls-75{fill:url(#linear-gradient-73);}.cls-76{fill:url(#linear-gradient-74);}.cls-77{fill:url(#linear-gradient-75);}.cls-78{fill:url(#linear-gradient-76);}.cls-79{fill:url(#linear-gradient-77);}.cls-80{fill:url(#linear-gradient-78);}.cls-81{fill:url(#linear-gradient-79);}.cls-82{fill:url(#linear-gradient-80);}.cls-83{fill:url(#linear-gradient-81);}.cls-84{fill:url(#linear-gradient-82);}.cls-85{fill:url(#linear-gradient-83);}.cls-86{fill:url(#linear-gradient-84);}.cls-87{fill:url(#linear-gradient-85);}.cls-88{fill:url(#linear-gradient-86);}.cls-89{fill:url(#linear-gradient-87);}.cls-90{fill:url(#linear-gradient-88);}.cls-91{fill:url(#linear-gradient-89);}.cls-92{fill:url(#linear-gradient-90);}.cls-93{fill:url(#linear-gradient-91);}.cls-94{fill:#fffdcf;}.cls-95{fill:url(#linear-gradient-92);}.cls-96{fill:url(#linear-gradient-93);}.cls-97{fill:url(#linear-gradient-94);}.cls-98{fill:url(#linear-gradient-95);}.cls-99{fill:#303030;}.cls-100{fill:url(#linear-gradient-96);}.cls-101,.cls-102{fill:none;stroke:#000;}.cls-101{stroke-width:1.83px;}.cls-102{stroke-miterlimit:3.48;stroke-width:1.74px;}.cls-103{fill:url(#linear-gradient-97);}.cls-104{font-size:50px;font-family:IntelClear-Regular, Intel Clear;}</style><linearGradient id="linear-gradient" x1="811.13" y1="221.91" x2="476.21" y2="557.78" gradientTransform="matrix(1, 0, 0, -1, -52.4, 942.26)" gradientUnits="userSpaceOnUse"><stop offset="0" stop-color="#447043"/><stop offset="1" stop-color="#435d43"/></linearGradient><linearGradient id="linear-gradient-2" x1="620.42" y1="1035.4" x2="623.93" y2="1035.4" gradientTransform="matrix(0, 0.97, 0.93, 0, -330.1, 54.32)" gradientUnits="userSpaceOnUse"><stop offset="0" stop-color="#4d0206"/><stop offset="0.5" stop-color="#eb5c5c"/><stop offset="1" stop-color="#4d0206"/></linearGradient><linearGradient id="linear-gradient-3" x1="619.7" y1="1040.18" x2="624.67" y2="1040.18" gradientTransform="matrix(0, 0.97, 0.93, 0, -330.1, 54.32)" gradientUnits="userSpaceOnUse"><stop offset="0" stop-color="#616161"/><stop offset="0.5" stop-color="#d4d4d4"/><stop offset="1" stop-color="#616161"/></linearGradient><linearGradient id="linear-gradient-4" x1="619.7" y1="1030.24" x2="624.67" y2="1030.24" xlink:href="#linear-gradient-3"/><linearGradient id="linear-gradient-5" x1="622.59" y1="1055.71" x2="626.1" y2="1055.71" gradientTransform="matrix(0, 0.97, 0.93, 0, -277.32, 60.23)" xlink:href="#linear-gradient-2"/><linearGradient id="linear-gradient-6" x1="621.87" y1="1060.49" x2="626.84" y2="1060.49" gradientTransform="matrix(0, 0.97, 0.93, 0, -277.32, 60.23)" xlink:href="#linear-gradient-3"/><linearGradient id="linear-gradient-7" x1="621.87" y1="1050.56" x2="626.84" y2="1050.56" gradientTransform="matrix(0, 0.97, 0.93, 0, -277.32, 60.23)" xlink:href="#linear-gradient-3"/><linearGradient id="linear-gradient-8" x1="641.26" y1="96.26" x2="644.78" y2="96.26" gradientTransform="matrix(0.93, 0, 0, -0.97, 8.53, 756.97)" xlink:href="#linear-gradient-2"/><linearGradient id="linear-gradient-9" x1="640.54" y1="101.04" x2="645.51" y2="101.04" gradientTransform="matrix(0.93, 0, 0, -0.97, 8.53, 756.97)" xlink:href="#linear-gradient-3"/><linearGradient id="linear-gradient-10" x1="640.54" y1="91.11" x2="645.51" y2="91.11" gradientTransform="matrix(0.93, 0, 0, -0.97, 8.53, 756.97)" xlink:href="#linear-gradient-3"/><linearGradient id="linear-gradient-11" x1="636.67" y1="96.26" x2="640.18" y2="96.26" gradientTransform="matrix(0.93, 0, 0, -0.97, -3.41, 756.97)" xlink:href="#linear-gradient-2"/><linearGradient id="linear-gradient-12" x1="635.95" y1="101.04" x2="640.92" y2="101.04" gradientTransform="matrix(0.93, 0, 0, -0.97, -3.41, 756.97)" xlink:href="#linear-gradient-3"/><linearGradient id="linear-gradient-13" x1="635.95" y1="91.11" x2="640.92" y2="91.11" gradientTransform="matrix(0.93, 0, 0, -0.97, -3.41, 756.97)" xlink:href="#linear-gradient-3"/><linearGradient id="linear-gradient-14" x1="629.9" y1="96.26" x2="633.42" y2="96.26" gradientTransform="matrix(0.93, 0, 0, -0.97, -21, 756.97)" xlink:href="#linear-gradient-2"/><linearGradient id="linear-gradient-15" x1="629.18" y1="101.04" x2="634.15" y2="101.04" gradientTransform="matrix(0.93, 0, 0, -0.97, -21, 756.97)" xlink:href="#linear-gradient-3"/><linearGradient id="linear-gradient-16" x1="629.18" y1="91.11" x2="634.15" y2="91.11" gradientTransform="matrix(0.93, 0, 0, -0.97, -21, 756.97)" xlink:href="#linear-gradient-3"/><linearGradient id="linear-gradient-17" x1="620.42" y1="1041.39" x2="623.93" y2="1041.39" gradientTransform="matrix(0, 0.97, 0.93, 0, -314.54, 54.32)" xlink:href="#linear-gradient-2"/><linearGradient id="linear-gradient-18" x1="619.7" y1="1046.17" x2="624.67" y2="1046.17" gradientTransform="matrix(0, 0.97, 0.93, 0, -314.54, 54.32)" xlink:href="#linear-gradient-3"/><linearGradient id="linear-gradient-19" x1="619.7" y1="1036.23" x2="624.67" y2="1036.23" gradientTransform="matrix(0, 0.97, 0.93, 0, -314.54, 54.32)" xlink:href="#linear-gradient-3"/><linearGradient id="linear-gradient-20" x1="622.59" y1="1050.32" x2="626.1" y2="1050.32" gradientTransform="matrix(0, 0.97, 0.93, 0, -291.32, 60.23)" xlink:href="#linear-gradient-2"/><linearGradient id="linear-gradient-21" x1="621.87" y1="1055.1" x2="626.84" y2="1055.1" gradientTransform="matrix(0, 0.97, 0.93, 0, -291.32, 60.23)" xlink:href="#linear-gradient-3"/><linearGradient id="linear-gradient-22" x1="621.87" y1="1045.17" x2="626.84" y2="1045.17" gradientTransform="matrix(0, 0.97, 0.93, 0, -291.32, 60.23)" xlink:href="#linear-gradient-3"/><linearGradient id="linear-gradient-23" x1="607.03" y1="152.97" x2="610.55" y2="152.97" gradientTransform="matrix(0.93, 0, 0, -0.97, -80.43, 602.32)" xlink:href="#linear-gradient-2"/><linearGradient id="linear-gradient-24" x1="606.31" y1="157.75" x2="611.28" y2="157.75" gradientTransform="matrix(0.93, 0, 0, -0.97, -80.43, 602.32)" xlink:href="#linear-gradient-3"/><linearGradient id="linear-gradient-25" x1="606.31" y1="147.82" x2="611.28" y2="147.82" gradientTransform="matrix(0.93, 0, 0, -0.97, -80.43, 602.32)" xlink:href="#linear-gradient-3"/><linearGradient id="linear-gradient-26" x1="604.08" y1="151" x2="607.6" y2="151" gradientTransform="matrix(0.93, 0, 0, -0.97, -88.09, 607.67)" xlink:href="#linear-gradient-2"/><linearGradient id="linear-gradient-27" x1="603.36" y1="155.79" x2="608.33" y2="155.79" gradientTransform="matrix(0.93, 0, 0, -0.97, -88.09, 607.67)" xlink:href="#linear-gradient-3"/><linearGradient id="linear-gradient-28" x1="603.36" y1="145.85" x2="608.33" y2="145.85" gradientTransform="matrix(0.93, 0, 0, -0.97, -88.09, 607.67)" xlink:href="#linear-gradient-3"/><linearGradient id="linear-gradient-29" x1="604.08" y1="145.14" x2="607.6" y2="145.14" gradientTransform="matrix(0.93, 0, 0, -0.97, -88.09, 623.67)" xlink:href="#linear-gradient-2"/><linearGradient id="linear-gradient-30" x1="603.36" y1="149.92" x2="608.33" y2="149.92" gradientTransform="matrix(0.93, 0, 0, -0.97, -88.09, 623.67)" xlink:href="#linear-gradient-3"/><linearGradient id="linear-gradient-31" x1="603.36" y1="139.99" x2="608.33" y2="139.99" gradientTransform="matrix(0.93, 0, 0, -0.97, -88.09, 623.67)" xlink:href="#linear-gradient-3"/><linearGradient id="linear-gradient-32" x1="607.03" y1="139.9" x2="610.55" y2="139.9" gradientTransform="matrix(0.93, 0, 0, -0.97, -80.43, 637.94)" xlink:href="#linear-gradient-2"/><linearGradient id="linear-gradient-33" x1="606.31" y1="144.69" x2="611.28" y2="144.69" gradientTransform="matrix(0.93, 0, 0, -0.97, -80.43, 637.94)" xlink:href="#linear-gradient-3"/><linearGradient id="linear-gradient-34" x1="606.31" y1="134.75" x2="611.28" y2="134.75" gradientTransform="matrix(0.93, 0, 0, -0.97, -80.43, 637.94)" xlink:href="#linear-gradient-3"/><linearGradient id="linear-gradient-35" x1="604.08" y1="139.9" x2="607.6" y2="139.9" gradientTransform="matrix(0.93, 0, 0, -0.97, -88.09, 637.94)" xlink:href="#linear-gradient-2"/><linearGradient id="linear-gradient-36" x1="603.36" y1="144.69" x2="608.33" y2="144.69" gradientTransform="matrix(0.93, 0, 0, -0.97, -88.09, 637.94)" xlink:href="#linear-gradient-3"/><linearGradient id="linear-gradient-37" x1="603.36" y1="134.75" x2="608.33" y2="134.75" gradientTransform="matrix(0.93, 0, 0, -0.97, -88.09, 637.94)" xlink:href="#linear-gradient-3"/><linearGradient id="linear-gradient-38" x1="604.08" y1="157.03" x2="607.6" y2="157.03" gradientTransform="matrix(0.93, 0, 0, -0.97, -88.09, 591.25)" xlink:href="#linear-gradient-2"/><linearGradient id="linear-gradient-39" x1="603.36" y1="161.81" x2="608.33" y2="161.81" gradientTransform="matrix(0.93, 0, 0, -0.97, -88.09, 591.25)" xlink:href="#linear-gradient-3"/><linearGradient id="linear-gradient-40" x1="603.36" y1="151.88" x2="608.33" y2="151.88" gradientTransform="matrix(0.93, 0, 0, -0.97, -88.09, 591.25)" xlink:href="#linear-gradient-3"/><linearGradient id="linear-gradient-41" x1="669.95" y1="114.69" x2="673.46" y2="114.69" gradientTransform="matrix(0.93, 0, 0, -0.97, 83.07, 706.71)" xlink:href="#linear-gradient-2"/><linearGradient id="linear-gradient-42" x1="669.23" y1="119.47" x2="674.2" y2="119.47" gradientTransform="matrix(0.93, 0, 0, -0.97, 83.07, 706.71)" xlink:href="#linear-gradient-3"/><linearGradient id="linear-gradient-43" x1="669.23" y1="109.53" x2="674.2" y2="109.53" gradientTransform="matrix(0.93, 0, 0, -0.97, 83.07, 706.71)" xlink:href="#linear-gradient-3"/><linearGradient id="linear-gradient-44" x1="666.76" y1="114.69" x2="670.28" y2="114.69" gradientTransform="matrix(0.93, 0, 0, -0.97, 74.79, 706.71)" xlink:href="#linear-gradient-2"/><linearGradient id="linear-gradient-45" x1="666.04" y1="119.47" x2="671.01" y2="119.47" gradientTransform="matrix(0.93, 0, 0, -0.97, 74.79, 706.71)" xlink:href="#linear-gradient-3"/><linearGradient id="linear-gradient-46" x1="666.04" y1="109.53" x2="671.01" y2="109.53" gradientTransform="matrix(0.93, 0, 0, -0.97, 74.79, 706.71)" xlink:href="#linear-gradient-3"/><linearGradient id="linear-gradient-47" x1="669.95" y1="99.7" x2="673.46" y2="99.7" gradientTransform="matrix(0.93, 0, 0, -0.97, 83.07, 747.57)" xlink:href="#linear-gradient-2"/><linearGradient id="linear-gradient-48" x1="669.23" y1="104.49" x2="674.2" y2="104.49" gradientTransform="matrix(0.93, 0, 0, -0.97, 83.07, 747.57)" xlink:href="#linear-gradient-3"/><linearGradient id="linear-gradient-49" x1="669.23" y1="94.55" x2="674.2" y2="94.55" gradientTransform="matrix(0.93, 0, 0, -0.97, 83.07, 747.57)" xlink:href="#linear-gradient-3"/><linearGradient id="linear-gradient-50" x1="666.76" y1="104.25" x2="670.28" y2="104.25" gradientTransform="matrix(0.93, 0, 0, -0.97, 74.79, 735.18)" xlink:href="#linear-gradient-2"/><linearGradient id="linear-gradient-51" x1="666.04" y1="109.03" x2="671.01" y2="109.03" gradientTransform="matrix(0.93, 0, 0, -0.97, 74.79, 735.18)" xlink:href="#linear-gradient-3"/><linearGradient id="linear-gradient-52" x1="666.04" y1="99.09" x2="671.01" y2="99.09" gradientTransform="matrix(0.93, 0, 0, -0.97, 74.79, 735.18)" xlink:href="#linear-gradient-3"/><linearGradient id="linear-gradient-53" x1="669.95" y1="121.5" x2="673.46" y2="121.5" gradientTransform="matrix(0.93, 0, 0, -0.97, 83.07, 688.13)" xlink:href="#linear-gradient-2"/><linearGradient id="linear-gradient-54" x1="669.23" y1="126.29" x2="674.2" y2="126.29" gradientTransform="matrix(0.93, 0, 0, -0.97, 83.07, 688.13)" xlink:href="#linear-gradient-3"/><linearGradient id="linear-gradient-55" x1="669.23" y1="116.35" x2="674.2" y2="116.35" gradientTransform="matrix(0.93, 0, 0, -0.97, 83.07, 688.13)" xlink:href="#linear-gradient-3"/><linearGradient id="linear-gradient-56" x1="666.76" y1="148.71" x2="670.28" y2="148.71" gradientTransform="matrix(0.93, 0, 0, -0.97, 74.79, 613.93)" xlink:href="#linear-gradient-2"/><linearGradient id="linear-gradient-57" x1="666.04" y1="153.49" x2="671.01" y2="153.49" gradientTransform="matrix(0.93, 0, 0, -0.97, 74.79, 613.93)" xlink:href="#linear-gradient-3"/><linearGradient id="linear-gradient-58" x1="666.04" y1="143.56" x2="671.01" y2="143.56" gradientTransform="matrix(0.93, 0, 0, -0.97, 74.79, 613.93)" xlink:href="#linear-gradient-3"/><linearGradient id="linear-gradient-59" x1="666.76" y1="134.43" x2="670.28" y2="134.43" gradientTransform="matrix(0.93, 0, 0, -0.97, 74.79, 652.86)" xlink:href="#linear-gradient-2"/><linearGradient id="linear-gradient-60" x1="666.04" y1="139.22" x2="671.01" y2="139.22" gradientTransform="matrix(0.93, 0, 0, -0.97, 74.79, 652.86)" xlink:href="#linear-gradient-3"/><linearGradient id="linear-gradient-61" x1="666.04" y1="129.28" x2="671.01" y2="129.28" gradientTransform="matrix(0.93, 0, 0, -0.97, 74.79, 652.86)" xlink:href="#linear-gradient-3"/><linearGradient id="linear-gradient-62" x1="666.76" y1="126.48" x2="670.28" y2="126.48" gradientTransform="matrix(0.93, 0, 0, -0.97, 74.79, 674.55)" xlink:href="#linear-gradient-2"/><linearGradient id="linear-gradient-63" x1="666.04" y1="131.26" x2="671.01" y2="131.26" gradientTransform="matrix(0.93, 0, 0, -0.97, 74.79, 674.55)" xlink:href="#linear-gradient-3"/><linearGradient id="linear-gradient-64" x1="666.04" y1="121.33" x2="671.01" y2="121.33" gradientTransform="matrix(0.93, 0, 0, -0.97, 74.79, 674.55)" xlink:href="#linear-gradient-3"/><linearGradient id="linear-gradient-65" x1="669.95" y1="143.61" x2="673.46" y2="143.61" gradientTransform="matrix(0.93, 0, 0, -0.97, 83.07, 627.85)" xlink:href="#linear-gradient-2"/><linearGradient id="linear-gradient-66" x1="669.23" y1="148.39" x2="674.2" y2="148.39" gradientTransform="matrix(0.93, 0, 0, -0.97, 83.07, 627.85)" xlink:href="#linear-gradient-3"/><linearGradient id="linear-gradient-67" x1="669.23" y1="138.45" x2="674.2" y2="138.45" gradientTransform="matrix(0.93, 0, 0, -0.97, 83.07, 627.85)" xlink:href="#linear-gradient-3"/><linearGradient id="linear-gradient-68" x1="559.09" y1="997.32" x2="562.61" y2="997.32" gradientTransform="matrix(0, 0.97, 0.93, 0, -429.06, -112.91)" xlink:href="#linear-gradient-2"/><linearGradient id="linear-gradient-69" x1="558.37" y1="1002.1" x2="563.34" y2="1002.1" gradientTransform="matrix(0, 0.97, 0.93, 0, -429.06, -112.91)" xlink:href="#linear-gradient-3"/><linearGradient id="linear-gradient-70" x1="558.37" y1="992.16" x2="563.34" y2="992.16" gradientTransform="matrix(0, 0.97, 0.93, 0, -429.06, -112.91)" xlink:href="#linear-gradient-3"/><linearGradient id="linear-gradient-71" x1="561.71" y1="1046.27" x2="565.22" y2="1046.27" gradientTransform="matrix(0, 0.97, 0.93, 0, -301.93, -105.77)" xlink:href="#linear-gradient-2"/><linearGradient id="linear-gradient-72" x1="560.99" y1="1051.05" x2="565.96" y2="1051.05" gradientTransform="matrix(0, 0.97, 0.93, 0, -301.93, -105.77)" xlink:href="#linear-gradient-3"/><linearGradient id="linear-gradient-73" x1="560.99" y1="1041.11" x2="565.96" y2="1041.11" gradientTransform="matrix(0, 0.97, 0.93, 0, -301.93, -105.77)" xlink:href="#linear-gradient-3"/><linearGradient id="linear-gradient-74" x1="561.84" y1="1039.61" x2="565.35" y2="1039.61" gradientTransform="matrix(0, 0.97, 0.93, 0, -319.14, -105.43)" xlink:href="#linear-gradient-2"/><linearGradient id="linear-gradient-75" x1="561.12" y1="1044.4" x2="566.09" y2="1044.4" gradientTransform="matrix(0, 0.97, 0.93, 0, -319.14, -105.43)" xlink:href="#linear-gradient-3"/><linearGradient id="linear-gradient-76" x1="561.12" y1="1034.46" x2="566.09" y2="1034.46" gradientTransform="matrix(0, 0.97, 0.93, 0, -319.14, -105.43)" xlink:href="#linear-gradient-3"/><linearGradient id="linear-gradient-77" x1="559.03" y1="1034.39" x2="562.54" y2="1034.39" gradientTransform="matrix(0, 0.97, 0.93, 0, -332.71, -113.08)" xlink:href="#linear-gradient-2"/><linearGradient id="linear-gradient-78" x1="558.31" y1="1039.18" x2="563.28" y2="1039.18" gradientTransform="matrix(0, 0.97, 0.93, 0, -332.71, -113.08)" xlink:href="#linear-gradient-3"/><linearGradient id="linear-gradient-79" x1="558.31" y1="1029.24" x2="563.28" y2="1029.24" gradientTransform="matrix(0, 0.97, 0.93, 0, -332.71, -113.08)" xlink:href="#linear-gradient-3"/><linearGradient id="linear-gradient-80" x1="559.03" y1="1029.17" x2="562.54" y2="1029.17" gradientTransform="matrix(0, 0.97, 0.93, 0, -346.27, -113.08)" xlink:href="#linear-gradient-2"/><linearGradient id="linear-gradient-81" x1="558.31" y1="1033.96" x2="563.28" y2="1033.96" gradientTransform="matrix(0, 0.97, 0.93, 0, -346.27, -113.08)" xlink:href="#linear-gradient-3"/><linearGradient id="linear-gradient-82" x1="558.31" y1="1024.02" x2="563.28" y2="1024.02" gradientTransform="matrix(0, 0.97, 0.93, 0, -346.27, -113.08)" xlink:href="#linear-gradient-3"/><linearGradient id="linear-gradient-83" x1="561.96" y1="1021.27" x2="565.48" y2="1021.27" gradientTransform="matrix(0, 0.97, 0.93, 0, -366.8, -105.08)" xlink:href="#linear-gradient-2"/><linearGradient id="linear-gradient-84" x1="561.24" y1="1026.06" x2="566.21" y2="1026.06" gradientTransform="matrix(0, 0.97, 0.93, 0, -366.8, -105.08)" xlink:href="#linear-gradient-3"/><linearGradient id="linear-gradient-85" x1="561.24" y1="1016.12" x2="566.21" y2="1016.12" gradientTransform="matrix(0, 0.97, 0.93, 0, -366.8, -105.08)" xlink:href="#linear-gradient-3"/><linearGradient id="linear-gradient-86" x1="561.84" y1="1014.58" x2="565.35" y2="1014.58" gradientTransform="matrix(0, 0.97, 0.93, 0, -384.19, -105.43)" xlink:href="#linear-gradient-2"/><linearGradient id="linear-gradient-87" x1="561.12" y1="1019.37" x2="566.09" y2="1019.37" gradientTransform="matrix(0, 0.97, 0.93, 0, -384.19, -105.43)" xlink:href="#linear-gradient-3"/><linearGradient id="linear-gradient-88" x1="561.12" y1="1009.43" x2="566.09" y2="1009.43" gradientTransform="matrix(0, 0.97, 0.93, 0, -384.19, -105.43)" xlink:href="#linear-gradient-3"/><linearGradient id="linear-gradient-89" x1="561.84" y1="1003.61" x2="565.35" y2="1003.61" gradientTransform="matrix(0, 0.97, 0.93, 0, -412.71, -105.43)" xlink:href="#linear-gradient-2"/><linearGradient id="linear-gradient-90" x1="561.12" y1="1008.39" x2="566.09" y2="1008.39" gradientTransform="matrix(0, 0.97, 0.93, 0, -412.71, -105.43)" xlink:href="#linear-gradient-3"/><linearGradient id="linear-gradient-91" x1="561.12" y1="998.46" x2="566.09" y2="998.46" gradientTransform="matrix(0, 0.97, 0.93, 0, -412.71, -105.43)" xlink:href="#linear-gradient-3"/><linearGradient id="linear-gradient-92" x1="609.32" y1="351.46" x2="632.62" y2="352.79" gradientTransform="matrix(0.87, 0, 0, -0.87, -31.94, 857.26)" gradientUnits="userSpaceOnUse"><stop offset="0" stop-color="#acb6c3"/><stop offset="1" stop-color="#717171"/></linearGradient><linearGradient id="linear-gradient-93" x1="714.92" y1="246.34" x2="715.43" y2="268.73" xlink:href="#linear-gradient-92"/><linearGradient id="linear-gradient-94" x1="716.65" y1="456.97" x2="715.58" y2="436.5" xlink:href="#linear-gradient-92"/><linearGradient id="linear-gradient-95" x1="820.7" y1="351.59" x2="792.65" y2="350.83" xlink:href="#linear-gradient-92"/><linearGradient id="linear-gradient-96" x1="664.26" y1="131.66" x2="786.64" y2="-37.14" gradientTransform="matrix(0.93, 0, 0, -0.97, -80, 603.27)" gradientUnits="userSpaceOnUse"><stop offset="0" stop-color="#d4dadf"/><stop offset="0.28" stop-color="#fff"/><stop offset="1" stop-color="#7c8b9f"/></linearGradient><linearGradient id="linear-gradient-97" x1="1205.26" y1="164.89" x2="829.7" y2="541.31" gradientTransform="matrix(0.87, 0, 0, -0.87, -292.63, 857.26)" gradientUnits="userSpaceOnUse"><stop offset="0" stop-color="#cbd3e3"/><stop offset="0.83" stop-color="#fff"/><stop offset="1" stop-color="#ced8ff"/></linearGradient></defs><g class="cls-1"><polygon points="15.23 11.21 338.07 13.02 340.57 15.88 343.55 341.4 339.85 344.71 15.74 344.23 8.68 338.21 11.94 14.52 15.23 11.22 15.23 11.21"/></g><path class="cls-2" d="M428.82,384.87l-3.28,3.31-2.1,326.06,7.08,6,324.1.48,3.73-3.32L757.13,389l-2.51-2.88-325.8-1.22Z" transform="translate(-423.44 -384.87)"/><path class="cls-3" d="M517.36,440.8h-5.44v5.94h5.44Zm9,0h-5.67v5.94h5.67Zm29.76,0h-5.45v5.94h5.45Zm9,0h-5.67v5.94H565Zm14.62.47h-5.44v6h5.44Zm9,0H583v6h5.67Zm18.86-10.86H602v5.94h5.45Zm9,0h-5.67v5.94h5.67Zm9.45,0h-5.45v5.94h5.45Zm9,0h-5.67v5.94h5.67Zm9.45,10.39h-5.44v5.94h5.44Zm9,0H647.6v5.94h5.67ZM704,490v5.72h5.66V490Zm0-9.4v5.95h5.66v-5.95Zm-11.25,72.8v5.71h5.66v-5.71Zm0-9.41v5.95h5.66v-5.95ZM704,571.77v5.71h5.66v-5.71Zm0-9.4v5.94h5.66v-5.94Zm-11.25,73.27v5.71h5.66v-5.71Zm0-9.41v5.95h5.66v-5.95ZM704,597v5.71h5.66V597Zm0-9.41v5.95h5.66v-5.95ZM692.76,597v5.71h5.66V597Zm0-9.41v5.95h5.66v-5.95Zm0-63.69v5.71h5.66V523.9Zm0-9.4v5.94h5.66V514.5ZM471.69,484.28V490h5.66v-5.71Zm0-9.41v5.95h5.66v-5.95Zm10.39,28.78v5.71h5.67v-5.71Zm0-9.4v5.95h5.67v-5.95Zm-10.39,9.4v5.71h5.66v-5.71Zm0-9.4v5.95h5.66v-5.95Zm10.39-38.95V461h5.67V455.3Zm0-9.4v6h5.67v-6Zm-10.39,16.67v5.71h5.66v-5.71Zm0-9.41v5.95h5.66v-5.95Zm0-12.89V446h5.66v-5.71Zm0-9.4v5.94h5.66v-5.94Zm23.39-.23h-5.44v5.95h5.44Zm9,0h-5.67v5.95h5.67Zm163.67,9.69h-5.44v5.94h5.44Zm9,0H671v5.94h5.67ZM629.45,657.62H624v5.94h5.44Zm9,0h-5.67v5.94h5.67Zm12.19,0h-5.44v5.94h5.44Zm9,0h-5.67v5.94h5.67Zm22.54,8h-5.44v5.94h5.44Zm9,0h-5.67v5.94h5.67Zm9.94,0h-5.44v5.94H701Zm9,0h-5.66v5.94H710ZM692.76,471.06v5.71h5.66v-5.71Zm0-9.41v6h5.66v-6Zm-90,203.56v5.71h5.67v-5.71Zm0-9.41v6h5.67v-6Zm-16.2,9.41v5.71h5.66v-5.71Zm0-9.41v6h5.66v-6Zm-23.86,9.41v5.71h5.66v-5.71Zm0-9.41v6h5.66v-6ZM704,652.45v5.71h5.66v-5.71Zm0-9.4v6h5.66v-6ZM448.73,389.68H431.28v18.64h17.45Z" transform="translate(-423.44 -384.87)"/><path class="cls-4" d="M635,658.88h-7.2v3.43H635Z" transform="translate(-423.44 -384.87)"/><path class="cls-5" d="M637.79,658.18h-3.94V663h3.94Z" transform="translate(-423.44 -384.87)"/><path class="cls-6" d="M628.57,658.18h-3.94V663h3.94Z" transform="translate(-423.44 -384.87)"/><path class="cls-7" d="M706.63,666.91h-7.21v3.42h7.21Z" transform="translate(-423.44 -384.87)"/><path class="cls-8" d="M709.44,666.21H705.5v4.84h3.94Z" transform="translate(-423.44 -384.87)"/><path class="cls-9" d="M700.21,666.21h-3.94v4.84h3.94Z" transform="translate(-423.44 -384.87)"/><path class="cls-10" d="M604,659.39V667h3.27v-7.56Z" transform="translate(-423.44 -384.87)"/><path class="cls-11" d="M603.34,656.44v4.13H608v-4.13Z" transform="translate(-423.44 -384.87)"/><path class="cls-12" d="M603.34,666.12v4.14H608v-4.14Z" transform="translate(-423.44 -384.87)"/><path class="cls-13" d="M587.81,659.39V667h3.26v-7.56Z" transform="translate(-423.44 -384.87)"/><path class="cls-14" d="M587.14,656.44v4.13h4.61v-4.13Z" transform="translate(-423.44 -384.87)"/><path class="cls-15" d="M587.14,666.12v4.14h4.61v-4.14Z" transform="translate(-423.44 -384.87)"/><path class="cls-16" d="M563.94,659.39V667h3.27v-7.56Z" transform="translate(-423.44 -384.87)"/><path class="cls-17" d="M563.27,656.44v4.13h4.62v-4.13Z" transform="translate(-423.44 -384.87)"/><path class="cls-18" d="M563.27,666.12v4.14h4.62v-4.14Z" transform="translate(-423.44 -384.87)"/><path class="cls-19" d="M656.11,658.88h-7.2v3.43h7.2Z" transform="translate(-423.44 -384.87)"/><path class="cls-20" d="M658.92,658.18H655V663h3.94Z" transform="translate(-423.44 -384.87)"/><path class="cls-21" d="M649.69,658.18h-3.93V663h3.93Z" transform="translate(-423.44 -384.87)"/><path class="cls-22" d="M687.62,666.91h-7.2v3.42h7.2Z" transform="translate(-423.44 -384.87)"/><path class="cls-23" d="M690.44,666.21H686.5v4.84h3.94Z" transform="translate(-423.44 -384.87)"/><path class="cls-24" d="M681.21,666.21h-3.94v4.84h3.94Z" transform="translate(-423.44 -384.87)"/><path class="cls-25" d="M483.27,449.48V457h3.26v-7.56Z" transform="translate(-423.44 -384.87)"/><path class="cls-26" d="M482.6,446.53v4.14h4.61v-4.14Z" transform="translate(-423.44 -384.87)"/><path class="cls-27" d="M482.6,456.21v4.14h4.61v-4.14Z" transform="translate(-423.44 -384.87)"/><path class="cls-28" d="M472.87,456.75v7.56h3.26v-7.56Z" transform="translate(-423.44 -384.87)"/><path class="cls-29" d="M472.2,453.8v4.13h4.62V453.8Z" transform="translate(-423.44 -384.87)"/><path class="cls-30" d="M472.2,463.48v4.13h4.62v-4.13Z" transform="translate(-423.44 -384.87)"/><path class="cls-31" d="M472.87,478.46V486h3.26v-7.56Z" transform="translate(-423.44 -384.87)"/><path class="cls-32" d="M472.2,475.51v4.13h4.62v-4.13Z" transform="translate(-423.44 -384.87)"/><path class="cls-33" d="M472.2,485.19v4.14h4.62v-4.14Z" transform="translate(-423.44 -384.87)"/><path class="cls-34" d="M483.27,497.83v7.56h3.26v-7.56Z" transform="translate(-423.44 -384.87)"/><path class="cls-35" d="M482.6,494.88V499h4.61v-4.14Z" transform="translate(-423.44 -384.87)"/><path class="cls-36" d="M482.6,504.57v4.13h4.61v-4.13Z" transform="translate(-423.44 -384.87)"/><path class="cls-37" d="M472.87,497.83v7.56h3.26v-7.56Z" transform="translate(-423.44 -384.87)"/><path class="cls-38" d="M472.2,494.88V499h4.62v-4.14Z" transform="translate(-423.44 -384.87)"/><path class="cls-39" d="M472.2,504.57v4.13h4.62v-4.13Z" transform="translate(-423.44 -384.87)"/><path class="cls-40" d="M472.87,434.45V442h3.26v-7.56Z" transform="translate(-423.44 -384.87)"/><path class="cls-41" d="M472.2,431.5v4.14h4.62V431.5Z" transform="translate(-423.44 -384.87)"/><path class="cls-42" d="M472.2,441.18v4.14h4.62v-4.14Z" transform="translate(-423.44 -384.87)"/><path class="cls-43" d="M705.2,591.18v7.56h3.26v-7.56Z" transform="translate(-423.44 -384.87)"/><path class="cls-44" d="M704.53,588.23v4.13h4.62v-4.13Z" transform="translate(-423.44 -384.87)"/><path class="cls-45" d="M704.53,597.91v4.14h4.62v-4.14Z" transform="translate(-423.44 -384.87)"/><path class="cls-46" d="M694,591.18v7.56h3.27v-7.56Z" transform="translate(-423.44 -384.87)"/><path class="cls-47" d="M693.28,588.23v4.13h4.62v-4.13Z" transform="translate(-423.44 -384.87)"/><path class="cls-48" d="M693.28,597.91v4.14h4.62v-4.14Z" transform="translate(-423.44 -384.87)"/><path class="cls-49" d="M705.2,646.63v7.56h3.26v-7.56Z" transform="translate(-423.44 -384.87)"/><path class="cls-50" d="M704.53,643.68v4.13h4.62v-4.13Z" transform="translate(-423.44 -384.87)"/><path class="cls-51" d="M704.53,653.36v4.14h4.62v-4.14Z" transform="translate(-423.44 -384.87)"/><path class="cls-52" d="M694,629.82v7.56h3.27v-7.56Z" transform="translate(-423.44 -384.87)"/><path class="cls-53" d="M693.28,626.87V631h4.62v-4.14Z" transform="translate(-423.44 -384.87)"/><path class="cls-54" d="M693.28,636.56v4.13h4.62v-4.13Z" transform="translate(-423.44 -384.87)"/><path class="cls-55" d="M705.2,566v7.56h3.26V566Z" transform="translate(-423.44 -384.87)"/><path class="cls-56" d="M704.53,563v4.13h4.62V563Z" transform="translate(-423.44 -384.87)"/><path class="cls-57" d="M704.53,572.68v4.14h4.62v-4.14Z" transform="translate(-423.44 -384.87)"/><path class="cls-58" d="M694,465.24v7.56h3.27v-7.56Z" transform="translate(-423.44 -384.87)"/><path class="cls-59" d="M693.28,462.29v4.13h4.62v-4.13Z" transform="translate(-423.44 -384.87)"/><path class="cls-60" d="M693.28,472v4.13h4.62V472Z" transform="translate(-423.44 -384.87)"/><path class="cls-61" d="M694,518.08v7.56h3.27v-7.56Z" transform="translate(-423.44 -384.87)"/><path class="cls-62" d="M693.28,515.13v4.14h4.62v-4.14Z" transform="translate(-423.44 -384.87)"/><path class="cls-63" d="M693.28,524.81V529h4.62v-4.14Z" transform="translate(-423.44 -384.87)"/><path class="cls-64" d="M694,547.53v7.56h3.27v-7.56Z" transform="translate(-423.44 -384.87)"/><path class="cls-65" d="M693.28,544.58v4.13h4.62v-4.13Z" transform="translate(-423.44 -384.87)"/><path class="cls-66" d="M693.28,554.26v4.13h4.62v-4.13Z" transform="translate(-423.44 -384.87)"/><path class="cls-67" d="M705.2,484.13v7.56h3.26v-7.56Z" transform="translate(-423.44 -384.87)"/><path class="cls-68" d="M704.53,481.18v4.14h4.62v-4.14Z" transform="translate(-423.44 -384.87)"/><path class="cls-69" d="M704.53,490.87V495h4.62v-4.13Z" transform="translate(-423.44 -384.87)"/><path class="cls-70" d="M500.66,431.9h-7.2v3.42h7.2Z" transform="translate(-423.44 -384.87)"/><path class="cls-71" d="M503.48,431.2h-3.94V436h3.94Z" transform="translate(-423.44 -384.87)"/><path class="cls-72" d="M494.25,431.2h-3.94V436h3.94Z" transform="translate(-423.44 -384.87)"/><path class="cls-73" d="M673.26,441.59h-7.21V445h7.21Z" transform="translate(-423.44 -384.87)"/><path class="cls-74" d="M676.06,440.88h-3.93v4.85h3.93Z" transform="translate(-423.44 -384.87)"/><path class="cls-75" d="M666.83,440.88H662.9v4.85h3.93Z" transform="translate(-423.44 -384.87)"/><path class="cls-76" d="M649.85,442.05h-7.2v3.42h7.2Z" transform="translate(-423.44 -384.87)"/><path class="cls-77" d="M652.67,441.35h-3.94v4.84h3.94Z" transform="translate(-423.44 -384.87)"/><path class="cls-78" d="M643.44,441.35H639.5v4.84h3.94Z" transform="translate(-423.44 -384.87)"/><path class="cls-79" d="M631.44,431.66h-7.2v3.43h7.2Z" transform="translate(-423.44 -384.87)"/><path class="cls-80" d="M634.25,431h-3.94v4.84h3.94Z" transform="translate(-423.44 -384.87)"/><path class="cls-81" d="M625,431h-3.94v4.84H625Z" transform="translate(-423.44 -384.87)"/><path class="cls-82" d="M613,431.66h-7.2v3.43H613Z" transform="translate(-423.44 -384.87)"/><path class="cls-83" d="M615.84,431H611.9v4.84h3.94Z" transform="translate(-423.44 -384.87)"/><path class="cls-84" d="M606.61,431h-3.94v4.84h3.94Z" transform="translate(-423.44 -384.87)"/><path class="cls-85" d="M585.17,442.52H578V446h7.2Z" transform="translate(-423.44 -384.87)"/><path class="cls-86" d="M588,441.82h-3.94v4.84H588Z" transform="translate(-423.44 -384.87)"/><path class="cls-87" d="M578.76,441.82h-3.94v4.84h3.94Z" transform="translate(-423.44 -384.87)"/><path class="cls-88" d="M561.57,442.05h-7.2v3.42h7.2Z" transform="translate(-423.44 -384.87)"/><path class="cls-89" d="M564.38,441.35h-3.94v4.84h3.94Z" transform="translate(-423.44 -384.87)"/><path class="cls-90" d="M555.15,441.35h-3.94v4.84h3.94Z" transform="translate(-423.44 -384.87)"/><path class="cls-91" d="M522.85,442.05h-7.2v3.42h7.2Z" transform="translate(-423.44 -384.87)"/><path class="cls-92" d="M525.67,441.35h-3.94v4.84h3.94Z" transform="translate(-423.44 -384.87)"/><path class="cls-93" d="M516.44,441.35H512.5v4.84h3.94Z" transform="translate(-423.44 -384.87)"/><path class="cls-94" d="M475.27,660.49h2.07a1.88,1.88,0,0,1,1.83,1.92v2a1.88,1.88,0,0,1-1.83,1.92h-2.07a1.88,1.88,0,0,1-1.83-1.92v-2A1.88,1.88,0,0,1,475.27,660.49Zm17.12-.25h-3v-3h3Zm4.92,0H494.2v-3h3.11Zm0,9.31h-7.93v-3h7.93Zm11.19-3h-3v3h3Zm4.92,0h-3.11v3h3.11Zm0-9.3h-7.94v3h7.94Zm22,7.93v5.71h5.66v-5.71Zm0-9.41v6h5.66v-6Zm157.1-217.54h2.07a1.88,1.88,0,0,1,1.83,1.92v2a1.88,1.88,0,0,1-1.83,1.92h-2.07a1.87,1.87,0,0,1-1.83-1.92v-2A1.87,1.87,0,0,1,692.58,438.26Zm7.22,7.86h2.07A1.87,1.87,0,0,1,703.7,448v2a1.87,1.87,0,0,1-1.83,1.92H699.8a1.88,1.88,0,0,1-1.83-1.92v-2a1.88,1.88,0,0,1,1.83-1.92Zm-13.46,87.34h2.07a1.88,1.88,0,0,1,1.83,1.92v2a1.88,1.88,0,0,1-1.83,1.92h-2.07a1.88,1.88,0,0,1-1.83-1.92v-2A1.88,1.88,0,0,1,686.34,533.46ZM667.65,646.21h2.07a1.86,1.86,0,0,1,1.83,1.92v2a1.87,1.87,0,0,1-1.83,1.92h-2.07a1.88,1.88,0,0,1-1.83-1.92v-2A1.87,1.87,0,0,1,667.65,646.21ZM484,600.78h2.07a1.87,1.87,0,0,1,1.83,1.92v2a1.87,1.87,0,0,1-1.83,1.92H484a1.86,1.86,0,0,1-1.83-1.92v-2A1.86,1.86,0,0,1,484,600.78ZM518.2,431.83h-2.85v3.11h2.85Zm4.69,0h-3v3.11h3Zm34,0h-2.85v3.11h2.85Zm4.68,0h-3v3.11h3Zm18.9,0h-2.84v3.11h2.84Zm4.69,0h-3v3.11h3ZM494,443.18v3.1h7.52v-3.1Zm111.5-.95v3.1H613v-3.1Zm18.41,0v3.1h7.53v-3.1ZM473,520.49v3h3v-3Zm0-4.92v3.11h3v-3.11Zm10.51,1.76v7.93h3v-7.93Zm143.9,149.75v3.1H635v-3.1Zm24,0H648.6v3.11h2.84Zm4.69,0h-3v3.11h3Zm9.58-235.23V435h7.52v-3.1Zm-20.57,0h-2.85v3.11h2.85Zm4.69,0h-3v3.11h3Zm55.5,23.49v7.9h3v-7.9Zm-11.23,33v3h3v-3Zm0-4.92v3.12h3v-3.12Zm0,15.19v7.89h2.95V498.6Zm11.24,14.22v3h3v-3Zm0-4.92V511h3V507.9Zm0,20.42v7.93h3v-7.93Zm0,23.68v3h3v-3Zm0-4.92v3.11h3v-3.11Zm-11.24,19.47v7.94h2.95v-7.94Zm-14,91.27v3.1h7.52v-3.1Zm25.22-23.06v3h3v-3Zm0-4.92V633h3v-3.12Zm0-14.4v3h3v-3Zm0-4.92v3.11h3v-3.11Zm-12.6,5.8V622h5.66v-5.72Zm0-9.4v6h5.66v-6ZM471.68,586.83v5.71h5.66v-5.71Zm0-9.4v6h5.66v-6Zm10.51,4.39v5.71h5.66v-5.71Zm0-9.4v6h5.66v-6Zm0-10.31v5.72h5.66v-5.72Zm0-9.4v5.95h5.66v-5.95Zm0-11v5.71h5.66v-5.71Zm0-9.41v5.95h5.66v-5.95Zm0-48V490h5.66v-5.71Zm0-9.41v5.95h5.66v-5.95Zm52.53-43v3.1h7.52v-3.1Zm2,9h-5.44v5.94h5.44Zm9,0H540v5.94h5.67Z" transform="translate(-423.44 -384.87)"/><path class="cls-95" d="M586.84,537.42l-84,101.14c-3-2.83-5-7.08-4.95-12.88l1.87-148.1c-.16-6.63,1.71-10.86,4.62-13.51l82.46,73.36Z" transform="translate(-423.44 -384.87)"/><path class="cls-96" d="M676.88,637.35c-3.65,3.7-9,5.15-14.42,5L514.92,643a18.2,18.2,0,0,1-12.11-4.43l83.67-101.32,90.41,100.13Z" transform="translate(-423.44 -384.87)"/><path class="cls-97" d="M517.28,460l144.85-.28c6.09.18,11.9,1.65,15.5,6.14l-91.47,74.41-81.85-76.08c3.41-3.14,8.32-4.12,13-4.19Z" transform="translate(-423.44 -384.87)"/><path class="cls-98" d="M677.46,465.61c2.44,3,4,7.4,3.86,13.62l.27,143.84c.19,6.83-1.83,11.55-5.06,14.62L584.88,537.54l92.58-71.93Z" transform="translate(-423.44 -384.87)"/><path class="cls-99" d="M510.32,466.81l160.31,0,4.49,3.88-1,160.52-5.42,5.27-159.7-.28-3.25-3.94c.54-54,1.47-109.83,2-162.52l2.52-2.9Z" transform="translate(-423.44 -384.87)"/><path class="cls-100" d="M511.87,469c52.37.31,106.39.61,157.29.92l2.07,1.84-1.74,158.84-2,2.4L510,633.45l-1.44-1.7,1.76-161,1.58-1.82Z" transform="translate(-423.44 -384.87)"/><polyline class="cls-101" points="36.98 280.43 38.87 51.28 56.01 35 284.78 35 297.86 49.26"/><polyline class="cls-102" points="4.29 320.05 13.78 330.14 321.14 330.14 330.87 320.05 330.79 8.44"/><path class="cls-103" d="M447.43,387.68l-18.08,16-1.62,301.28L437.22,715H744.59l9.72-10.09-.07-311.61-4.34-5-302.47-.58h0Zm32,32.2H708.23l13.07,14.26-1.93,232.67-13.62,13.85L473.58,679.3l-13.16-14,1.9-229.16,17.13-16.29Z" transform="translate(-423.44 -384.87)"/><text class="cls-104" transform="translate(118.8 182.96)">mivi</text></svg>